%TF.GenerationSoftware,KiCad,Pcbnew,8.0.6*%
%TF.CreationDate,2024-11-22T12:10:13+00:00*%
%TF.ProjectId,AliceMini,416c6963-654d-4696-9e69-2e6b69636164,rev?*%
%TF.SameCoordinates,Original*%
%TF.FileFunction,Legend,Top*%
%TF.FilePolarity,Positive*%
%FSLAX46Y46*%
G04 Gerber Fmt 4.6, Leading zero omitted, Abs format (unit mm)*
G04 Created by KiCad (PCBNEW 8.0.6) date 2024-11-22 12:10:13*
%MOMM*%
%LPD*%
G01*
G04 APERTURE LIST*
G04 Aperture macros list*
%AMRoundRect*
0 Rectangle with rounded corners*
0 $1 Rounding radius*
0 $2 $3 $4 $5 $6 $7 $8 $9 X,Y pos of 4 corners*
0 Add a 4 corners polygon primitive as box body*
4,1,4,$2,$3,$4,$5,$6,$7,$8,$9,$2,$3,0*
0 Add four circle primitives for the rounded corners*
1,1,$1+$1,$2,$3*
1,1,$1+$1,$4,$5*
1,1,$1+$1,$6,$7*
1,1,$1+$1,$8,$9*
0 Add four rect primitives between the rounded corners*
20,1,$1+$1,$2,$3,$4,$5,0*
20,1,$1+$1,$4,$5,$6,$7,0*
20,1,$1+$1,$6,$7,$8,$9,0*
20,1,$1+$1,$8,$9,$2,$3,0*%
G04 Aperture macros list end*
%ADD10C,0.150000*%
%ADD11C,0.120000*%
%ADD12C,0.200000*%
%ADD13RoundRect,0.250000X0.262500X0.450000X-0.262500X0.450000X-0.262500X-0.450000X0.262500X-0.450000X0*%
%ADD14RoundRect,0.250000X-0.325000X-0.650000X0.325000X-0.650000X0.325000X0.650000X-0.325000X0.650000X0*%
%ADD15RoundRect,0.200000X0.275000X-0.200000X0.275000X0.200000X-0.275000X0.200000X-0.275000X-0.200000X0*%
%ADD16RoundRect,0.200000X-0.200000X-0.275000X0.200000X-0.275000X0.200000X0.275000X-0.200000X0.275000X0*%
%ADD17RoundRect,0.250000X-0.650000X0.325000X-0.650000X-0.325000X0.650000X-0.325000X0.650000X0.325000X0*%
%ADD18R,2.000000X2.000000*%
%ADD19RoundRect,0.200000X-0.275000X0.200000X-0.275000X-0.200000X0.275000X-0.200000X0.275000X0.200000X0*%
%ADD20C,1.300000*%
%ADD21RoundRect,0.225000X0.225000X0.375000X-0.225000X0.375000X-0.225000X-0.375000X0.225000X-0.375000X0*%
%ADD22RoundRect,0.200000X0.200000X0.275000X-0.200000X0.275000X-0.200000X-0.275000X0.200000X-0.275000X0*%
%ADD23R,0.650000X1.528000*%
G04 APERTURE END LIST*
D10*
X5833333Y-5604819D02*
X5500000Y-5128628D01*
X5261905Y-5604819D02*
X5261905Y-4604819D01*
X5261905Y-4604819D02*
X5642857Y-4604819D01*
X5642857Y-4604819D02*
X5738095Y-4652438D01*
X5738095Y-4652438D02*
X5785714Y-4700057D01*
X5785714Y-4700057D02*
X5833333Y-4795295D01*
X5833333Y-4795295D02*
X5833333Y-4938152D01*
X5833333Y-4938152D02*
X5785714Y-5033390D01*
X5785714Y-5033390D02*
X5738095Y-5081009D01*
X5738095Y-5081009D02*
X5642857Y-5128628D01*
X5642857Y-5128628D02*
X5261905Y-5128628D01*
X6785714Y-5604819D02*
X6214286Y-5604819D01*
X6500000Y-5604819D02*
X6500000Y-4604819D01*
X6500000Y-4604819D02*
X6404762Y-4747676D01*
X6404762Y-4747676D02*
X6309524Y-4842914D01*
X6309524Y-4842914D02*
X6214286Y-4890533D01*
D11*
%TO.C,R1*%
X6227064Y-4235000D02*
X5772936Y-4235000D01*
X6227064Y-2765000D02*
X5772936Y-2765000D01*
%TO.C,C8*%
X1788748Y-20090000D02*
X3211252Y-20090000D01*
X1788748Y-21910000D02*
X3211252Y-21910000D01*
%TO.C,R5*%
X5477500Y-6237258D02*
X5477500Y-5762742D01*
X6522500Y-6237258D02*
X6522500Y-5762742D01*
%TO.C,R3*%
X9762742Y-11477500D02*
X10237258Y-11477500D01*
X9762742Y-12522500D02*
X10237258Y-12522500D01*
%TO.C,R2*%
X13477500Y-7237258D02*
X13477500Y-6762742D01*
X14522500Y-7237258D02*
X14522500Y-6762742D01*
%TO.C,C5*%
X11090000Y-14763748D02*
X11090000Y-16186252D01*
X12910000Y-14763748D02*
X12910000Y-16186252D01*
%TO.C,H7*%
X7300000Y-22800000D02*
X9700000Y-22800000D01*
X7300000Y-25200000D02*
X7300000Y-22800000D01*
X9700000Y-22800000D02*
X9700000Y-25200000D01*
X9700000Y-25200000D02*
X7300000Y-25200000D01*
%TO.C,R7*%
X5477500Y-21237258D02*
X5477500Y-20762742D01*
X6522500Y-21237258D02*
X6522500Y-20762742D01*
%TO.C,C2*%
X1788748Y-9090000D02*
X3211252Y-9090000D01*
X1788748Y-10910000D02*
X3211252Y-10910000D01*
%TO.C,R9*%
X12977500Y-20762742D02*
X12977500Y-21237258D01*
X14022500Y-20762742D02*
X14022500Y-21237258D01*
%TO.C,R6*%
X3977500Y-15262742D02*
X3977500Y-15737258D01*
X5022500Y-15262742D02*
X5022500Y-15737258D01*
%TO.C,H5*%
X800000Y-800000D02*
X3200000Y-800000D01*
X800000Y-3200000D02*
X800000Y-800000D01*
X3200000Y-800000D02*
X3200000Y-3200000D01*
X3200000Y-3200000D02*
X800000Y-3200000D01*
%TO.C,D1*%
X4860000Y-17500000D02*
X850000Y-17500000D01*
X4860000Y-19500000D02*
X850000Y-19500000D01*
X4860000Y-19500000D02*
X4860000Y-17500000D01*
%TO.C,R10*%
X7977500Y-20762742D02*
X7977500Y-21237258D01*
X9022500Y-20762742D02*
X9022500Y-21237258D01*
%TO.C,R8*%
X6737258Y-17977500D02*
X6262742Y-17977500D01*
X6737258Y-19022500D02*
X6262742Y-19022500D01*
%TO.C,R4*%
X5477500Y-9737258D02*
X5477500Y-9262742D01*
X6522500Y-9737258D02*
X6522500Y-9262742D01*
%TO.C,H8*%
X2300000Y-22800000D02*
X4700000Y-22800000D01*
X2300000Y-25200000D02*
X2300000Y-22800000D01*
X4700000Y-22800000D02*
X4700000Y-25200000D01*
X4700000Y-25200000D02*
X2300000Y-25200000D01*
%TO.C,H6*%
X12300000Y-22800000D02*
X14700000Y-22800000D01*
X12300000Y-25200000D02*
X12300000Y-22800000D01*
X14700000Y-22800000D02*
X14700000Y-25200000D01*
X14700000Y-25200000D02*
X12300000Y-25200000D01*
%TO.C,H4*%
X8300000Y-800000D02*
X10700000Y-800000D01*
X8300000Y-3200000D02*
X8300000Y-800000D01*
X10700000Y-800000D02*
X10700000Y-3200000D01*
X10700000Y-3200000D02*
X8300000Y-3200000D01*
%TO.C,C3*%
X1788748Y-11590000D02*
X3211252Y-11590000D01*
X1788748Y-13410000D02*
X3211252Y-13410000D01*
%TO.C,C1*%
X1788748Y-5090000D02*
X3211252Y-5090000D01*
X1788748Y-6910000D02*
X3211252Y-6910000D01*
%TO.C,C7*%
X6090000Y-14288748D02*
X6090000Y-15711252D01*
X7910000Y-14288748D02*
X7910000Y-15711252D01*
%TO.C,C4*%
X13590000Y-14788748D02*
X13590000Y-16211252D01*
X15410000Y-14788748D02*
X15410000Y-16211252D01*
%TO.C,C6*%
X8590000Y-14788748D02*
X8590000Y-16211252D01*
X10410000Y-14788748D02*
X10410000Y-16211252D01*
D12*
%TO.C,IC1*%
X8048000Y-5902000D02*
X12952000Y-5902000D01*
X8048000Y-9098000D02*
X8048000Y-5902000D01*
X12952000Y-5902000D02*
X12952000Y-9098000D01*
X12952000Y-9098000D02*
X8048000Y-9098000D01*
X13080000Y-4025000D02*
X13080000Y-5552000D01*
%TD*%
%LPC*%
D13*
%TO.C,R1*%
X6912500Y-3500000D03*
X5087500Y-3500000D03*
%TD*%
D14*
%TO.C,C8*%
X1025000Y-21000000D03*
X3975000Y-21000000D03*
%TD*%
D15*
%TO.C,R5*%
X6000000Y-6825000D03*
X6000000Y-5175000D03*
%TD*%
D16*
%TO.C,R3*%
X9175000Y-12000000D03*
X10825000Y-12000000D03*
%TD*%
D15*
%TO.C,R2*%
X14000000Y-7825000D03*
X14000000Y-6175000D03*
%TD*%
D17*
%TO.C,C5*%
X12000000Y-14000000D03*
X12000000Y-16950000D03*
%TD*%
D18*
%TO.C,H7*%
X8500000Y-24000000D03*
%TD*%
D15*
%TO.C,R7*%
X6000000Y-21825000D03*
X6000000Y-20175000D03*
%TD*%
D14*
%TO.C,C2*%
X1025000Y-10000000D03*
X3975000Y-10000000D03*
%TD*%
D19*
%TO.C,R9*%
X13500000Y-20175000D03*
X13500000Y-21825000D03*
%TD*%
%TO.C,R6*%
X4500000Y-14675000D03*
X4500000Y-16325000D03*
%TD*%
D18*
%TO.C,H5*%
X2000000Y-2000000D03*
%TD*%
D20*
%TO.C,REF\u002A\u002A*%
X15000000Y-1000000D03*
%TD*%
D21*
%TO.C,D1*%
X4150000Y-18500000D03*
X850000Y-18500000D03*
%TD*%
D19*
%TO.C,R10*%
X8500000Y-20175000D03*
X8500000Y-21825000D03*
%TD*%
D22*
%TO.C,R8*%
X7325000Y-18500000D03*
X5675000Y-18500000D03*
%TD*%
D20*
%TO.C,REF\u002A\u002A*%
X1000000Y-25000000D03*
%TD*%
D15*
%TO.C,R4*%
X6000000Y-10325000D03*
X6000000Y-8675000D03*
%TD*%
D18*
%TO.C,H8*%
X3500000Y-24000000D03*
%TD*%
%TO.C,H6*%
X13500000Y-24000000D03*
%TD*%
%TO.C,H4*%
X9500000Y-2000000D03*
%TD*%
D14*
%TO.C,C3*%
X1025000Y-12500000D03*
X3975000Y-12500000D03*
%TD*%
%TO.C,C1*%
X1025000Y-6000000D03*
X3975000Y-6000000D03*
%TD*%
D17*
%TO.C,C7*%
X7000000Y-13525000D03*
X7000000Y-16475000D03*
%TD*%
%TO.C,C4*%
X14500000Y-14025000D03*
X14500000Y-16975000D03*
%TD*%
%TO.C,C6*%
X9500000Y-14025000D03*
X9500000Y-16975000D03*
%TD*%
D23*
%TO.C,IC1*%
X12405000Y-4789000D03*
X11135000Y-4789000D03*
X9865000Y-4789000D03*
X8595000Y-4789000D03*
X8595000Y-10211000D03*
X9865000Y-10211000D03*
X11135000Y-10211000D03*
X12405000Y-10211000D03*
%TD*%
%LPD*%
M02*
