%TF.GenerationSoftware,KiCad,Pcbnew,8.0.6*%
%TF.CreationDate,2024-11-13T15:27:44+00:00*%
%TF.ProjectId,AliceMini,416c6963-654d-4696-9e69-2e6b69636164,rev?*%
%TF.SameCoordinates,Original*%
%TF.FileFunction,Copper,L1,Top*%
%TF.FilePolarity,Positive*%
%FSLAX46Y46*%
G04 Gerber Fmt 4.6, Leading zero omitted, Abs format (unit mm)*
G04 Created by KiCad (PCBNEW 8.0.6) date 2024-11-13 15:27:44*
%MOMM*%
%LPD*%
G01*
G04 APERTURE LIST*
G04 Aperture macros list*
%AMRoundRect*
0 Rectangle with rounded corners*
0 $1 Rounding radius*
0 $2 $3 $4 $5 $6 $7 $8 $9 X,Y pos of 4 corners*
0 Add a 4 corners polygon primitive as box body*
4,1,4,$2,$3,$4,$5,$6,$7,$8,$9,$2,$3,0*
0 Add four circle primitives for the rounded corners*
1,1,$1+$1,$2,$3*
1,1,$1+$1,$4,$5*
1,1,$1+$1,$6,$7*
1,1,$1+$1,$8,$9*
0 Add four rect primitives between the rounded corners*
20,1,$1+$1,$2,$3,$4,$5,0*
20,1,$1+$1,$4,$5,$6,$7,0*
20,1,$1+$1,$6,$7,$8,$9,0*
20,1,$1+$1,$8,$9,$2,$3,0*%
G04 Aperture macros list end*
%TA.AperFunction,SMDPad,CuDef*%
%ADD10RoundRect,0.250000X-0.450000X0.262500X-0.450000X-0.262500X0.450000X-0.262500X0.450000X0.262500X0*%
%TD*%
%TA.AperFunction,SMDPad,CuDef*%
%ADD11RoundRect,0.250000X0.650000X2.450000X-0.650000X2.450000X-0.650000X-2.450000X0.650000X-2.450000X0*%
%TD*%
%TA.AperFunction,SMDPad,CuDef*%
%ADD12R,0.650000X1.528000*%
%TD*%
%TA.AperFunction,ComponentPad*%
%ADD13R,2.000000X2.000000*%
%TD*%
%TA.AperFunction,SMDPad,CuDef*%
%ADD14RoundRect,0.250000X0.312500X0.625000X-0.312500X0.625000X-0.312500X-0.625000X0.312500X-0.625000X0*%
%TD*%
%TA.AperFunction,SMDPad,CuDef*%
%ADD15RoundRect,0.250000X0.450000X-0.262500X0.450000X0.262500X-0.450000X0.262500X-0.450000X-0.262500X0*%
%TD*%
%TA.AperFunction,SMDPad,CuDef*%
%ADD16RoundRect,0.250000X-2.450000X0.650000X-2.450000X-0.650000X2.450000X-0.650000X2.450000X0.650000X0*%
%TD*%
%TA.AperFunction,SMDPad,CuDef*%
%ADD17RoundRect,0.250000X0.262500X0.450000X-0.262500X0.450000X-0.262500X-0.450000X0.262500X-0.450000X0*%
%TD*%
%TA.AperFunction,SMDPad,CuDef*%
%ADD18RoundRect,0.225000X0.225000X0.375000X-0.225000X0.375000X-0.225000X-0.375000X0.225000X-0.375000X0*%
%TD*%
%TA.AperFunction,SMDPad,CuDef*%
%ADD19RoundRect,0.250000X-0.262500X-0.450000X0.262500X-0.450000X0.262500X0.450000X-0.262500X0.450000X0*%
%TD*%
%TA.AperFunction,ViaPad*%
%ADD20C,0.800000*%
%TD*%
%TA.AperFunction,Conductor*%
%ADD21C,1.000000*%
%TD*%
%TA.AperFunction,Conductor*%
%ADD22C,0.500000*%
%TD*%
G04 APERTURE END LIST*
D10*
%TO.P,R6,1*%
%TO.N,Net-(IC1-V+)*%
X9500000Y-18337500D03*
%TO.P,R6,2*%
%TO.N,Net-(D1-K)*%
X9500000Y-20162500D03*
%TD*%
%TO.P,R9,1*%
%TO.N,Net-(C3-Pad2)*%
X21000000Y-26587500D03*
%TO.P,R9,2*%
%TO.N,Net-(H6-Pad1)*%
X21000000Y-28412500D03*
%TD*%
D11*
%TO.P,C5,1*%
%TO.N,Net-(D1-K)*%
X7000000Y-25000000D03*
%TO.P,C5,2*%
%TO.N,GND*%
X1900000Y-25000000D03*
%TD*%
D12*
%TO.P,IC1,1,OUT_A*%
%TO.N,Net-(IC1--IN_A)*%
X18540000Y-6000000D03*
%TO.P,IC1,2,-IN_A*%
X17270000Y-6000000D03*
%TO.P,IC1,3,+IN_A*%
%TO.N,Net-(IC1-+IN_A)*%
X16000000Y-6000000D03*
%TO.P,IC1,4,V-*%
%TO.N,GND*%
X14730000Y-6000000D03*
%TO.P,IC1,5,+IN_B*%
%TO.N,Net-(IC1-+IN_B)*%
X14730000Y-11422000D03*
%TO.P,IC1,6,-IN_B*%
%TO.N,Net-(IC1--IN_B)*%
X16000000Y-11422000D03*
%TO.P,IC1,7,OUT_B*%
%TO.N,Net-(IC1-OUT_B)*%
X17270000Y-11422000D03*
%TO.P,IC1,8,V+*%
%TO.N,Net-(IC1-V+)*%
X18540000Y-11422000D03*
%TD*%
D13*
%TO.P,H6,1,1*%
%TO.N,Net-(H6-Pad1)*%
X21000000Y-31000000D03*
%TD*%
D14*
%TO.P,R1,1*%
%TO.N,Net-(IC1-+IN_A)*%
X12000000Y-6250000D03*
%TO.P,R1,2*%
%TO.N,Net-(IC1-+IN_B)*%
X9075000Y-6250000D03*
%TD*%
D10*
%TO.P,R10,1*%
%TO.N,Net-(C4-Pad2)*%
X16000000Y-26587500D03*
%TO.P,R10,2*%
%TO.N,Net-(H7-Pad1)*%
X16000000Y-28412500D03*
%TD*%
D13*
%TO.P,H7,1,1*%
%TO.N,Net-(H7-Pad1)*%
X15000000Y-31000000D03*
%TD*%
D15*
%TO.P,R4,1*%
%TO.N,Net-(IC1-V+)*%
X9500000Y-13825000D03*
%TO.P,R4,2*%
%TO.N,Net-(IC1-+IN_B)*%
X9500000Y-12000000D03*
%TD*%
D13*
%TO.P,H5,1,1*%
%TO.N,GND*%
X10000000Y-3000000D03*
%TD*%
D16*
%TO.P,C4,1*%
%TO.N,Net-(IC1-OUT_B)*%
X14000000Y-16000000D03*
%TO.P,C4,2*%
%TO.N,Net-(C4-Pad2)*%
X14000000Y-21100000D03*
%TD*%
D13*
%TO.P,H8,1,1*%
%TO.N,GND*%
X9500000Y-31000000D03*
%TD*%
D11*
%TO.P,C2,1*%
%TO.N,Net-(IC1-V+)*%
X7000000Y-16000000D03*
%TO.P,C2,2*%
%TO.N,GND*%
X1900000Y-16000000D03*
%TD*%
D17*
%TO.P,R8,1*%
%TO.N,Net-(C4-Pad2)*%
X13912500Y-26500000D03*
%TO.P,R8,2*%
%TO.N,Net-(D1-K)*%
X12087500Y-26500000D03*
%TD*%
%TO.P,R5,1*%
%TO.N,Net-(IC1-+IN_B)*%
X7000000Y-6000000D03*
%TO.P,R5,2*%
%TO.N,GND*%
X5175000Y-6000000D03*
%TD*%
D16*
%TO.P,C3,1*%
%TO.N,Net-(IC1--IN_A)*%
X21000000Y-13500000D03*
%TO.P,C3,2*%
%TO.N,Net-(C3-Pad2)*%
X21000000Y-18600000D03*
%TD*%
D15*
%TO.P,R2,1*%
%TO.N,Net-(IC1--IN_B)*%
X21000000Y-8825000D03*
%TO.P,R2,2*%
%TO.N,Net-(IC1--IN_A)*%
X21000000Y-7000000D03*
%TD*%
D18*
%TO.P,D1,1,K*%
%TO.N,Net-(D1-K)*%
X7000000Y-20500000D03*
%TO.P,D1,2,A*%
%TO.N,GND*%
X3700000Y-20500000D03*
%TD*%
D13*
%TO.P,H4,1,1*%
%TO.N,Net-(IC1-+IN_A)*%
X16000000Y-3000000D03*
%TD*%
D19*
%TO.P,R3,1*%
%TO.N,Net-(IC1--IN_B)*%
X15250000Y-13500000D03*
%TO.P,R3,2*%
%TO.N,Net-(IC1-OUT_B)*%
X17075000Y-13500000D03*
%TD*%
D15*
%TO.P,R7,1*%
%TO.N,Net-(C3-Pad2)*%
X12500000Y-30325000D03*
%TO.P,R7,2*%
%TO.N,Net-(D1-K)*%
X12500000Y-28500000D03*
%TD*%
D11*
%TO.P,C1,1*%
%TO.N,Net-(IC1-+IN_B)*%
X7000000Y-10000000D03*
%TO.P,C1,2*%
%TO.N,GND*%
X1900000Y-10000000D03*
%TD*%
D20*
%TO.N,GND*%
X13750000Y-6000000D03*
X3700000Y-23200000D03*
X3837500Y-7337500D03*
X2725000Y-19525000D03*
%TO.N,Net-(IC1-V+)*%
X19500000Y-11500000D03*
X9500000Y-15500000D03*
%TD*%
D21*
%TO.N,GND*%
X3837500Y-7337500D02*
X5175000Y-6000000D01*
X1900000Y-18700000D02*
X2725000Y-19525000D01*
X2725000Y-19525000D02*
X3700000Y-20500000D01*
X3700000Y-23200000D02*
X1900000Y-25000000D01*
X1900000Y-9275000D02*
X1900000Y-18700000D01*
X14730000Y-6000000D02*
X13750000Y-6000000D01*
X3700000Y-23200000D02*
X3700000Y-20500000D01*
X3837500Y-7337500D02*
X1900000Y-9275000D01*
%TO.N,Net-(IC1-V+)*%
X19422000Y-11422000D02*
X19500000Y-11500000D01*
X18540000Y-11422000D02*
X19422000Y-11422000D01*
%TO.N,Net-(IC1-OUT_B)*%
X17270000Y-11422000D02*
X17270000Y-15430000D01*
X16700000Y-16000000D02*
X14000000Y-16000000D01*
X17270000Y-15430000D02*
X16700000Y-16000000D01*
D22*
%TO.N,Net-(C3-Pad2)*%
X12500000Y-32000000D02*
X12500000Y-30325000D01*
X13500000Y-33000000D02*
X12500000Y-32000000D01*
X18500000Y-28500000D02*
X18500000Y-31500000D01*
X17000000Y-33000000D02*
X13500000Y-33000000D01*
X18500000Y-31500000D02*
X17000000Y-33000000D01*
D21*
%TO.N,Net-(IC1--IN_A)*%
X21000000Y-6000000D02*
X23000000Y-8000000D01*
X23000000Y-11500000D02*
X21000000Y-13500000D01*
X23000000Y-8000000D02*
X23000000Y-11500000D01*
X17270000Y-6000000D02*
X21000000Y-6000000D01*
%TO.N,Net-(IC1-+IN_A)*%
X16000000Y-6000000D02*
X16000000Y-3000000D01*
D22*
X12000000Y-4750000D02*
X12000000Y-6250000D01*
X13750000Y-3000000D02*
X12000000Y-4750000D01*
X16000000Y-3000000D02*
X13750000Y-3000000D01*
D21*
%TO.N,Net-(H6-Pad1)*%
X21000000Y-28412500D02*
X21000000Y-31000000D01*
%TO.N,Net-(H7-Pad1)*%
X16000000Y-28412500D02*
X16000000Y-30000000D01*
X16000000Y-30000000D02*
X15000000Y-31000000D01*
D22*
%TO.N,Net-(IC1--IN_B)*%
X16000000Y-11422000D02*
X16000000Y-12750000D01*
X17333000Y-8825000D02*
X16000000Y-10158000D01*
X16000000Y-10158000D02*
X16000000Y-11422000D01*
X16000000Y-12750000D02*
X15250000Y-13500000D01*
X21000000Y-8825000D02*
X17333000Y-8825000D01*
%TD*%
%TA.AperFunction,Conductor*%
%TO.N,Net-(C4-Pad2)*%
G36*
X16258059Y-20251061D02*
G01*
X16363223Y-20264906D01*
X16394491Y-20273284D01*
X16484918Y-20310740D01*
X16512952Y-20326925D01*
X16590602Y-20386509D01*
X16613491Y-20409398D01*
X16673074Y-20487048D01*
X16689259Y-20515081D01*
X16726715Y-20605508D01*
X16735093Y-20636775D01*
X16748939Y-20741939D01*
X16750000Y-20758125D01*
X16750000Y-26741874D01*
X16748939Y-26758060D01*
X16735093Y-26863224D01*
X16726715Y-26894491D01*
X16689259Y-26984918D01*
X16673074Y-27012951D01*
X16613491Y-27090601D01*
X16590601Y-27113491D01*
X16512951Y-27173074D01*
X16484918Y-27189259D01*
X16394491Y-27226715D01*
X16363224Y-27235093D01*
X16269398Y-27247446D01*
X16258058Y-27248939D01*
X16241874Y-27250000D01*
X13758126Y-27250000D01*
X13741941Y-27248939D01*
X13728917Y-27247224D01*
X13636775Y-27235093D01*
X13605508Y-27226715D01*
X13515081Y-27189259D01*
X13487048Y-27173074D01*
X13409398Y-27113491D01*
X13386508Y-27090601D01*
X13326925Y-27012951D01*
X13310740Y-26984918D01*
X13273284Y-26894491D01*
X13264906Y-26863223D01*
X13251061Y-26758059D01*
X13250000Y-26741874D01*
X13250000Y-25207113D01*
X13250000Y-25207107D01*
X13250000Y-25000000D01*
X13103554Y-24853554D01*
X13103548Y-24853547D01*
X11402198Y-23152198D01*
X11391503Y-23140003D01*
X11326924Y-23055842D01*
X11310739Y-23027808D01*
X11273284Y-22937383D01*
X11264906Y-22906116D01*
X11251061Y-22800952D01*
X11250000Y-22784767D01*
X11250000Y-20758125D01*
X11251061Y-20741940D01*
X11264906Y-20636776D01*
X11273284Y-20605508D01*
X11310740Y-20515081D01*
X11326923Y-20487050D01*
X11386513Y-20409392D01*
X11409392Y-20386513D01*
X11487050Y-20326923D01*
X11515079Y-20310740D01*
X11605509Y-20273283D01*
X11636775Y-20264906D01*
X11741941Y-20251061D01*
X11758126Y-20250000D01*
X16241874Y-20250000D01*
X16258059Y-20251061D01*
G37*
%TD.AperFunction*%
%TD*%
%TA.AperFunction,Conductor*%
%TO.N,Net-(IC1-V+)*%
G36*
X9758059Y-13251061D02*
G01*
X9863223Y-13264906D01*
X9894491Y-13273284D01*
X9984918Y-13310740D01*
X10012952Y-13326925D01*
X10090602Y-13386509D01*
X10113491Y-13409398D01*
X10173074Y-13487048D01*
X10189259Y-13515081D01*
X10226715Y-13605508D01*
X10235093Y-13636775D01*
X10248939Y-13741939D01*
X10250000Y-13758125D01*
X10250000Y-18241874D01*
X10248939Y-18258060D01*
X10235093Y-18363224D01*
X10226715Y-18394491D01*
X10189259Y-18484918D01*
X10173074Y-18512951D01*
X10113491Y-18590601D01*
X10090601Y-18613491D01*
X10012951Y-18673074D01*
X9984918Y-18689259D01*
X9894491Y-18726715D01*
X9863224Y-18735093D01*
X9769398Y-18747446D01*
X9758058Y-18748939D01*
X9741874Y-18750000D01*
X8500000Y-18750000D01*
X8250000Y-18750000D01*
X6508126Y-18750000D01*
X6491941Y-18748939D01*
X6478917Y-18747224D01*
X6386775Y-18735093D01*
X6355508Y-18726715D01*
X6265081Y-18689259D01*
X6237048Y-18673074D01*
X6159398Y-18613491D01*
X6136508Y-18590601D01*
X6076925Y-18512951D01*
X6060740Y-18484918D01*
X6023284Y-18394491D01*
X6014906Y-18363223D01*
X6001061Y-18258059D01*
X6000000Y-18241874D01*
X6000000Y-13758125D01*
X6001061Y-13741940D01*
X6014906Y-13636776D01*
X6023284Y-13605508D01*
X6060740Y-13515081D01*
X6076923Y-13487050D01*
X6136513Y-13409392D01*
X6159392Y-13386513D01*
X6237050Y-13326923D01*
X6265079Y-13310740D01*
X6355509Y-13273283D01*
X6386775Y-13264906D01*
X6491941Y-13251061D01*
X6508126Y-13250000D01*
X9741874Y-13250000D01*
X9758059Y-13251061D01*
G37*
%TD.AperFunction*%
%TD*%
%TA.AperFunction,Conductor*%
%TO.N,Net-(D1-K)*%
G36*
X9758059Y-19751061D02*
G01*
X9863223Y-19764906D01*
X9894491Y-19773284D01*
X9984918Y-19810740D01*
X10012952Y-19826925D01*
X10090602Y-19886509D01*
X10113491Y-19909398D01*
X10173074Y-19987048D01*
X10189259Y-20015081D01*
X10226715Y-20105508D01*
X10235093Y-20136775D01*
X10248939Y-20241939D01*
X10250000Y-20258125D01*
X10250000Y-23500000D01*
X10396445Y-23646445D01*
X10396451Y-23646452D01*
X12597801Y-25847801D01*
X12608496Y-25859996D01*
X12673075Y-25944157D01*
X12689260Y-25972191D01*
X12726715Y-26062616D01*
X12735093Y-26093882D01*
X12748939Y-26199046D01*
X12750000Y-26215232D01*
X12750000Y-27500000D01*
X12896445Y-27646445D01*
X12896450Y-27646451D01*
X13097801Y-27847801D01*
X13108496Y-27859996D01*
X13173075Y-27944157D01*
X13189260Y-27972191D01*
X13226715Y-28062616D01*
X13235093Y-28093882D01*
X13248939Y-28199046D01*
X13250000Y-28215232D01*
X13250000Y-28491874D01*
X13248939Y-28508060D01*
X13235093Y-28613224D01*
X13226715Y-28644491D01*
X13189259Y-28734918D01*
X13173074Y-28762951D01*
X13113491Y-28840601D01*
X13090601Y-28863491D01*
X13012951Y-28923074D01*
X12984918Y-28939259D01*
X12894491Y-28976715D01*
X12863224Y-28985093D01*
X12769398Y-28997446D01*
X12758058Y-28998939D01*
X12741874Y-29000000D01*
X11965233Y-29000000D01*
X11949048Y-28998939D01*
X11936024Y-28997224D01*
X11843882Y-28985093D01*
X11812616Y-28976715D01*
X11722191Y-28939260D01*
X11694157Y-28923075D01*
X11609996Y-28858496D01*
X11597801Y-28847801D01*
X10646452Y-27896451D01*
X10646445Y-27896445D01*
X10500000Y-27750000D01*
X10292893Y-27750000D01*
X10292886Y-27750000D01*
X6508126Y-27750000D01*
X6491941Y-27748939D01*
X6478917Y-27747224D01*
X6386775Y-27735093D01*
X6355508Y-27726715D01*
X6265081Y-27689259D01*
X6237048Y-27673074D01*
X6159398Y-27613491D01*
X6136508Y-27590601D01*
X6099896Y-27542888D01*
X6076925Y-27512951D01*
X6060740Y-27484918D01*
X6023284Y-27394491D01*
X6014906Y-27363223D01*
X6001061Y-27258059D01*
X6000000Y-27241874D01*
X6000000Y-20715232D01*
X6001061Y-20699047D01*
X6014906Y-20593883D01*
X6023284Y-20562616D01*
X6060739Y-20472191D01*
X6076924Y-20444157D01*
X6141503Y-20359996D01*
X6152190Y-20347809D01*
X6597809Y-19902190D01*
X6609996Y-19891503D01*
X6694157Y-19826924D01*
X6722191Y-19810739D01*
X6812616Y-19773284D01*
X6843882Y-19764906D01*
X6949048Y-19751061D01*
X6965233Y-19750000D01*
X9741874Y-19750000D01*
X9758059Y-19751061D01*
G37*
%TD.AperFunction*%
%TD*%
%TA.AperFunction,Conductor*%
%TO.N,Net-(C3-Pad2)*%
G36*
X23258059Y-17751061D02*
G01*
X23363223Y-17764906D01*
X23394491Y-17773284D01*
X23484918Y-17810740D01*
X23512952Y-17826925D01*
X23590602Y-17886509D01*
X23613491Y-17909398D01*
X23673074Y-17987048D01*
X23689259Y-18015081D01*
X23726715Y-18105508D01*
X23735093Y-18136775D01*
X23748939Y-18241939D01*
X23750000Y-18258125D01*
X23750000Y-20534767D01*
X23748939Y-20550953D01*
X23735093Y-20656117D01*
X23726715Y-20687383D01*
X23689260Y-20777808D01*
X23673075Y-20805842D01*
X23608496Y-20890003D01*
X23597801Y-20902198D01*
X21896451Y-22603547D01*
X21896445Y-22603554D01*
X21896441Y-22603558D01*
X21750000Y-22750000D01*
X21750000Y-22957107D01*
X21750000Y-22957113D01*
X21750000Y-26741874D01*
X21748939Y-26758060D01*
X21735093Y-26863224D01*
X21726715Y-26894491D01*
X21689259Y-26984918D01*
X21673074Y-27012951D01*
X21613491Y-27090601D01*
X21590601Y-27113491D01*
X21512951Y-27173074D01*
X21484918Y-27189259D01*
X21394491Y-27226715D01*
X21363224Y-27235093D01*
X21269398Y-27247446D01*
X21258058Y-27248939D01*
X21241874Y-27250000D01*
X20500000Y-27250000D01*
X20359571Y-27370367D01*
X20359560Y-27370375D01*
X20278996Y-27439428D01*
X20237316Y-27462981D01*
X20230667Y-27465184D01*
X20081342Y-27557289D01*
X19957287Y-27681344D01*
X19923158Y-27736676D01*
X19898318Y-27765726D01*
X18895999Y-28624857D01*
X18884343Y-28633710D01*
X18804780Y-28687041D01*
X18778761Y-28700337D01*
X18695845Y-28731011D01*
X18667433Y-28737850D01*
X18572319Y-28749136D01*
X18557708Y-28750000D01*
X18512211Y-28750000D01*
X18488020Y-28747617D01*
X18473189Y-28744667D01*
X18428518Y-28735781D01*
X18383822Y-28717267D01*
X18343727Y-28690477D01*
X18309522Y-28656272D01*
X18282730Y-28616175D01*
X18264218Y-28571480D01*
X18252383Y-28511980D01*
X18250000Y-28487789D01*
X18250000Y-18258125D01*
X18251061Y-18241940D01*
X18264906Y-18136776D01*
X18273284Y-18105508D01*
X18310740Y-18015081D01*
X18326923Y-17987050D01*
X18386513Y-17909392D01*
X18409392Y-17886513D01*
X18487050Y-17826923D01*
X18515079Y-17810740D01*
X18605509Y-17773283D01*
X18636775Y-17764906D01*
X18741941Y-17751061D01*
X18758126Y-17750000D01*
X23241874Y-17750000D01*
X23258059Y-17751061D01*
G37*
%TD.AperFunction*%
%TD*%
%TA.AperFunction,Conductor*%
%TO.N,Net-(IC1-+IN_B)*%
G36*
X9258059Y-5251061D02*
G01*
X9363223Y-5264906D01*
X9394491Y-5273284D01*
X9484918Y-5310740D01*
X9512952Y-5326925D01*
X9590602Y-5386509D01*
X9613491Y-5409398D01*
X9673074Y-5487048D01*
X9689259Y-5515081D01*
X9726715Y-5605508D01*
X9735093Y-5636775D01*
X9748939Y-5741939D01*
X9750000Y-5758125D01*
X9750000Y-8000000D01*
X9896445Y-8146445D01*
X9896451Y-8146452D01*
X12103547Y-10353548D01*
X12103554Y-10353554D01*
X12250000Y-10500000D01*
X14741874Y-10500000D01*
X14758059Y-10501061D01*
X14863223Y-10514906D01*
X14894491Y-10523284D01*
X14984918Y-10560740D01*
X15012952Y-10576925D01*
X15090602Y-10636509D01*
X15113486Y-10659392D01*
X15148876Y-10705513D01*
X15174070Y-10770678D01*
X15174500Y-10780997D01*
X15174500Y-11969000D01*
X15154815Y-12036039D01*
X15148876Y-12044486D01*
X15113490Y-12090602D01*
X15090600Y-12113492D01*
X15012951Y-12173074D01*
X14984918Y-12189259D01*
X14894491Y-12226715D01*
X14863224Y-12235093D01*
X14769398Y-12247446D01*
X14758058Y-12248939D01*
X14741874Y-12250000D01*
X10750000Y-12250000D01*
X10603558Y-12396441D01*
X10603554Y-12396445D01*
X10603547Y-12396451D01*
X10402198Y-12597801D01*
X10390003Y-12608496D01*
X10305842Y-12673075D01*
X10277808Y-12689260D01*
X10187383Y-12726715D01*
X10156117Y-12735093D01*
X10062291Y-12747446D01*
X10050951Y-12748939D01*
X10034767Y-12750000D01*
X9000000Y-12750000D01*
X7750000Y-12750000D01*
X6508126Y-12750000D01*
X6491941Y-12748939D01*
X6478917Y-12747224D01*
X6386775Y-12735093D01*
X6355508Y-12726715D01*
X6265081Y-12689259D01*
X6237048Y-12673074D01*
X6159398Y-12613491D01*
X6136508Y-12590601D01*
X6076925Y-12512951D01*
X6060740Y-12484918D01*
X6023284Y-12394491D01*
X6014906Y-12363223D01*
X6001061Y-12258059D01*
X6000000Y-12241874D01*
X6000000Y-7715232D01*
X6001061Y-7699047D01*
X6014906Y-7593883D01*
X6023284Y-7562616D01*
X6060739Y-7472191D01*
X6076924Y-7444157D01*
X6141503Y-7359996D01*
X6152183Y-7347816D01*
X6353553Y-7146447D01*
X6500000Y-7000000D01*
X6500000Y-5758125D01*
X6501061Y-5741940D01*
X6514906Y-5636776D01*
X6523284Y-5605508D01*
X6560740Y-5515081D01*
X6576923Y-5487050D01*
X6636513Y-5409392D01*
X6659392Y-5386513D01*
X6737050Y-5326923D01*
X6765079Y-5310740D01*
X6855509Y-5273283D01*
X6886775Y-5264906D01*
X6991941Y-5251061D01*
X7008126Y-5250000D01*
X9241874Y-5250000D01*
X9258059Y-5251061D01*
G37*
%TD.AperFunction*%
%TD*%
M02*
