%TF.GenerationSoftware,KiCad,Pcbnew,8.0.6*%
%TF.CreationDate,2024-11-12T22:00:55+00:00*%
%TF.ProjectId,AliceMini,416c6963-654d-4696-9e69-2e6b69636164,rev?*%
%TF.SameCoordinates,Original*%
%TF.FileFunction,Paste,Top*%
%TF.FilePolarity,Positive*%
%FSLAX46Y46*%
G04 Gerber Fmt 4.6, Leading zero omitted, Abs format (unit mm)*
G04 Created by KiCad (PCBNEW 8.0.6) date 2024-11-12 22:00:55*
%MOMM*%
%LPD*%
G01*
G04 APERTURE LIST*
G04 Aperture macros list*
%AMRoundRect*
0 Rectangle with rounded corners*
0 $1 Rounding radius*
0 $2 $3 $4 $5 $6 $7 $8 $9 X,Y pos of 4 corners*
0 Add a 4 corners polygon primitive as box body*
4,1,4,$2,$3,$4,$5,$6,$7,$8,$9,$2,$3,0*
0 Add four circle primitives for the rounded corners*
1,1,$1+$1,$2,$3*
1,1,$1+$1,$4,$5*
1,1,$1+$1,$6,$7*
1,1,$1+$1,$8,$9*
0 Add four rect primitives between the rounded corners*
20,1,$1+$1,$2,$3,$4,$5,0*
20,1,$1+$1,$4,$5,$6,$7,0*
20,1,$1+$1,$6,$7,$8,$9,0*
20,1,$1+$1,$8,$9,$2,$3,0*%
G04 Aperture macros list end*
%ADD10RoundRect,0.250000X0.262500X0.450000X-0.262500X0.450000X-0.262500X-0.450000X0.262500X-0.450000X0*%
%ADD11RoundRect,0.250000X0.450000X-0.262500X0.450000X0.262500X-0.450000X0.262500X-0.450000X-0.262500X0*%
%ADD12RoundRect,0.250000X-2.450000X0.650000X-2.450000X-0.650000X2.450000X-0.650000X2.450000X0.650000X0*%
%ADD13RoundRect,0.250000X-0.450000X0.262500X-0.450000X-0.262500X0.450000X-0.262500X0.450000X0.262500X0*%
%ADD14RoundRect,0.250000X0.650000X2.450000X-0.650000X2.450000X-0.650000X-2.450000X0.650000X-2.450000X0*%
%ADD15RoundRect,0.250000X-0.262500X-0.450000X0.262500X-0.450000X0.262500X0.450000X-0.262500X0.450000X0*%
%ADD16R,0.650000X1.528000*%
%ADD17RoundRect,0.225000X0.225000X0.375000X-0.225000X0.375000X-0.225000X-0.375000X0.225000X-0.375000X0*%
G04 APERTURE END LIST*
D10*
%TO.C,R5*%
X106442500Y-109520000D03*
X104617500Y-109520000D03*
%TD*%
D11*
%TO.C,R2*%
X117528000Y-111544500D03*
X117528000Y-109719500D03*
%TD*%
D12*
%TO.C,C4*%
X121592000Y-122306000D03*
X121592000Y-127406000D03*
%TD*%
D13*
%TO.C,R10*%
X112702000Y-141977500D03*
X112702000Y-143802500D03*
%TD*%
D14*
%TO.C,C8*%
X106820000Y-141905000D03*
X101720000Y-141905000D03*
%TD*%
D12*
%TO.C,C7*%
X114226000Y-130434000D03*
X114226000Y-135534000D03*
%TD*%
D13*
%TO.C,R6*%
X109985000Y-134642500D03*
X109985000Y-136467500D03*
%TD*%
D10*
%TO.C,R1*%
X110262500Y-107076000D03*
X108437500Y-107076000D03*
%TD*%
D14*
%TO.C,C2*%
X106820000Y-122855000D03*
X101720000Y-122855000D03*
%TD*%
D11*
%TO.C,R4*%
X109350000Y-117036500D03*
X109350000Y-115211500D03*
%TD*%
D13*
%TO.C,R3*%
X112525000Y-117497500D03*
X112525000Y-119322500D03*
%TD*%
D12*
%TO.C,C5*%
X114226000Y-122306000D03*
X114226000Y-127406000D03*
%TD*%
%TO.C,C6*%
X121592000Y-130434000D03*
X121592000Y-135534000D03*
%TD*%
D15*
%TO.C,R9*%
X121187500Y-143398000D03*
X123012500Y-143398000D03*
%TD*%
D11*
%TO.C,R7*%
X110162000Y-143906000D03*
X110162000Y-142081000D03*
%TD*%
D14*
%TO.C,C1*%
X106820000Y-115235000D03*
X101720000Y-115235000D03*
%TD*%
%TO.C,C3*%
X106820000Y-130475000D03*
X101720000Y-130475000D03*
%TD*%
D16*
%TO.C,IC1*%
X115573000Y-109603000D03*
X114303000Y-109603000D03*
X113033000Y-109603000D03*
X111763000Y-109603000D03*
X111763000Y-115025000D03*
X113033000Y-115025000D03*
X114303000Y-115025000D03*
X115573000Y-115025000D03*
%TD*%
D17*
%TO.C,D1*%
X107190000Y-136190000D03*
X103890000Y-136190000D03*
%TD*%
D10*
%TO.C,R8*%
X111836500Y-139842000D03*
X110011500Y-139842000D03*
%TD*%
M02*
