%TF.GenerationSoftware,KiCad,Pcbnew,8.0.6*%
%TF.CreationDate,2024-11-22T12:17:45+00:00*%
%TF.ProjectId,AliceMini,416c6963-654d-4696-9e69-2e6b69636164,rev?*%
%TF.SameCoordinates,Original*%
%TF.FileFunction,Copper,L2,Bot*%
%TF.FilePolarity,Positive*%
%FSLAX46Y46*%
G04 Gerber Fmt 4.6, Leading zero omitted, Abs format (unit mm)*
G04 Created by KiCad (PCBNEW 8.0.6) date 2024-11-22 12:17:45*
%MOMM*%
%LPD*%
G01*
G04 APERTURE LIST*
%TA.AperFunction,ComponentPad*%
%ADD10R,2.000000X2.000000*%
%TD*%
%TA.AperFunction,ViaPad*%
%ADD11C,0.800000*%
%TD*%
%TA.AperFunction,Conductor*%
%ADD12C,1.000000*%
%TD*%
G04 APERTURE END LIST*
D10*
%TO.P,H7,1,1*%
%TO.N,Net-(H7-Pad1)*%
X8500000Y-24000000D03*
%TD*%
%TO.P,H5,1,1*%
%TO.N,GND*%
X2000000Y-2000000D03*
%TD*%
%TO.P,H8,1,1*%
%TO.N,GND*%
X3500000Y-24000000D03*
%TD*%
%TO.P,H6,1,1*%
%TO.N,Net-(H6-Pad1)*%
X13500000Y-24000000D03*
%TD*%
%TO.P,H4,1,1*%
%TO.N,Net-(IC1-+IN_A)*%
X9500000Y-2000000D03*
%TD*%
D11*
%TO.N,GND*%
X1000000Y-15500000D03*
X7300000Y-5200000D03*
X1000000Y-8000000D03*
%TO.N,Net-(IC1-V+)*%
X5500000Y-11750000D03*
X13500000Y-10250000D03*
%TO.N,Net-(C4-Pad2)*%
X6000000Y-22900000D03*
X11500000Y-21200000D03*
%TD*%
D12*
%TO.N,Net-(IC1-V+)*%
X12000000Y-11750000D02*
X13500000Y-10250000D01*
X5500000Y-11750000D02*
X12000000Y-11750000D01*
%TO.N,Net-(C4-Pad2)*%
X6000000Y-22900000D02*
X7700000Y-21200000D01*
X7700000Y-21200000D02*
X11500000Y-21200000D01*
%TD*%
%TA.AperFunction,Conductor*%
%TO.N,GND*%
G36*
X15811232Y-2394D02*
G01*
X15851693Y-10462D01*
X15896482Y-29064D01*
X15920380Y-45082D01*
X15954608Y-79441D01*
X15970537Y-103405D01*
X15988967Y-148266D01*
X15996879Y-188754D01*
X15999180Y-213013D01*
X15900828Y-25784486D01*
X15896500Y-25816487D01*
X15882395Y-25868460D01*
X15850238Y-25923831D01*
X15824026Y-25949943D01*
X15768531Y-25981889D01*
X15747771Y-25987437D01*
X15716499Y-25995795D01*
X15684485Y-26000000D01*
X212211Y-26000000D01*
X188020Y-25997617D01*
X172744Y-25994578D01*
X147656Y-25989588D01*
X102956Y-25971072D01*
X79086Y-25955122D01*
X44877Y-25920913D01*
X28927Y-25897043D01*
X10412Y-25852346D01*
X2381Y-25811971D01*
X0Y-25787789D01*
X0Y-22952155D01*
X2000000Y-22952155D01*
X2000000Y-23750000D01*
X3066988Y-23750000D01*
X3034075Y-23807007D01*
X3000000Y-23934174D01*
X3000000Y-24065826D01*
X3034075Y-24192993D01*
X3066988Y-24250000D01*
X2000000Y-24250000D01*
X2000000Y-25047844D01*
X2006401Y-25107372D01*
X2006403Y-25107379D01*
X2056645Y-25242086D01*
X2056649Y-25242093D01*
X2142809Y-25357187D01*
X2142812Y-25357190D01*
X2257906Y-25443350D01*
X2257913Y-25443354D01*
X2392620Y-25493596D01*
X2392627Y-25493598D01*
X2452155Y-25499999D01*
X2452172Y-25500000D01*
X3250000Y-25500000D01*
X3250000Y-24433012D01*
X3307007Y-24465925D01*
X3434174Y-24500000D01*
X3565826Y-24500000D01*
X3692993Y-24465925D01*
X3750000Y-24433012D01*
X3750000Y-25500000D01*
X4547828Y-25500000D01*
X4547844Y-25499999D01*
X4607372Y-25493598D01*
X4607379Y-25493596D01*
X4742086Y-25443354D01*
X4742093Y-25443350D01*
X4857187Y-25357190D01*
X4857190Y-25357187D01*
X4943350Y-25242093D01*
X4943354Y-25242086D01*
X4993596Y-25107379D01*
X4993598Y-25107372D01*
X4999999Y-25047844D01*
X5000000Y-25047827D01*
X5000000Y-24250000D01*
X3933012Y-24250000D01*
X3965925Y-24192993D01*
X4000000Y-24065826D01*
X4000000Y-23934174D01*
X3965925Y-23807007D01*
X3933012Y-23750000D01*
X5000000Y-23750000D01*
X5000000Y-22968996D01*
X5299499Y-22968996D01*
X5326418Y-23104322D01*
X5326421Y-23104332D01*
X5379222Y-23231807D01*
X5455887Y-23346545D01*
X5553454Y-23444112D01*
X5668192Y-23520777D01*
X5795667Y-23573578D01*
X5795672Y-23573580D01*
X5795676Y-23573580D01*
X5795677Y-23573581D01*
X5931003Y-23600500D01*
X5931006Y-23600500D01*
X6068996Y-23600500D01*
X6160040Y-23582389D01*
X6204328Y-23573580D01*
X6299702Y-23534075D01*
X6331807Y-23520777D01*
X6331808Y-23520776D01*
X6331811Y-23520775D01*
X6446543Y-23444114D01*
X6910410Y-22980247D01*
X7299500Y-22980247D01*
X7299500Y-25019752D01*
X7311131Y-25078229D01*
X7311132Y-25078230D01*
X7355447Y-25144552D01*
X7421769Y-25188867D01*
X7421770Y-25188868D01*
X7480247Y-25200499D01*
X7480250Y-25200500D01*
X7480252Y-25200500D01*
X9519750Y-25200500D01*
X9519751Y-25200499D01*
X9534568Y-25197552D01*
X9578229Y-25188868D01*
X9578229Y-25188867D01*
X9578231Y-25188867D01*
X9644552Y-25144552D01*
X9688867Y-25078231D01*
X9688867Y-25078229D01*
X9688868Y-25078229D01*
X9700499Y-25019752D01*
X9700500Y-25019750D01*
X9700500Y-22980249D01*
X9700499Y-22980247D01*
X12299500Y-22980247D01*
X12299500Y-25019752D01*
X12311131Y-25078229D01*
X12311132Y-25078230D01*
X12355447Y-25144552D01*
X12421769Y-25188867D01*
X12421770Y-25188868D01*
X12480247Y-25200499D01*
X12480250Y-25200500D01*
X12480252Y-25200500D01*
X14519750Y-25200500D01*
X14519751Y-25200499D01*
X14534568Y-25197552D01*
X14578229Y-25188868D01*
X14578229Y-25188867D01*
X14578231Y-25188867D01*
X14644552Y-25144552D01*
X14688867Y-25078231D01*
X14688867Y-25078229D01*
X14688868Y-25078229D01*
X14700499Y-25019752D01*
X14700500Y-25019750D01*
X14700500Y-22980249D01*
X14700499Y-22980247D01*
X14688868Y-22921770D01*
X14688867Y-22921769D01*
X14644552Y-22855447D01*
X14578230Y-22811132D01*
X14578229Y-22811131D01*
X14519752Y-22799500D01*
X14519748Y-22799500D01*
X12480252Y-22799500D01*
X12480247Y-22799500D01*
X12421770Y-22811131D01*
X12421769Y-22811132D01*
X12355447Y-22855447D01*
X12311132Y-22921769D01*
X12311131Y-22921770D01*
X12299500Y-22980247D01*
X9700499Y-22980247D01*
X9688868Y-22921770D01*
X9688867Y-22921769D01*
X9644552Y-22855447D01*
X9578230Y-22811132D01*
X9578229Y-22811131D01*
X9519752Y-22799500D01*
X9519748Y-22799500D01*
X7480252Y-22799500D01*
X7480247Y-22799500D01*
X7421768Y-22811132D01*
X7413454Y-22814576D01*
X7343985Y-22822043D01*
X7302936Y-22801494D01*
X7323698Y-22857159D01*
X7314575Y-22913457D01*
X7311132Y-22921768D01*
X7299500Y-22980247D01*
X6910410Y-22980247D01*
X7112333Y-22778324D01*
X7173656Y-22744839D01*
X7243347Y-22749823D01*
X7268293Y-22768497D01*
X7245855Y-22730677D01*
X7248350Y-22660852D01*
X7278321Y-22612335D01*
X7953838Y-21936819D01*
X8015161Y-21903334D01*
X8041519Y-21900500D01*
X11568995Y-21900500D01*
X11660041Y-21882389D01*
X11704328Y-21873580D01*
X11831811Y-21820775D01*
X11946542Y-21744114D01*
X12044114Y-21646542D01*
X12120775Y-21531811D01*
X12173580Y-21404328D01*
X12200500Y-21268993D01*
X12200500Y-21131007D01*
X12200500Y-21131004D01*
X12173581Y-20995677D01*
X12173580Y-20995676D01*
X12173580Y-20995672D01*
X12173578Y-20995667D01*
X12120778Y-20868195D01*
X12120771Y-20868182D01*
X12044114Y-20753458D01*
X12044111Y-20753454D01*
X11946545Y-20655888D01*
X11946541Y-20655885D01*
X11831817Y-20579228D01*
X11831804Y-20579221D01*
X11704332Y-20526421D01*
X11704322Y-20526418D01*
X11568995Y-20499500D01*
X11568993Y-20499500D01*
X7768994Y-20499500D01*
X7631006Y-20499500D01*
X7631004Y-20499500D01*
X7495677Y-20526418D01*
X7495667Y-20526421D01*
X7368192Y-20579222D01*
X7253454Y-20655887D01*
X5455887Y-22453454D01*
X5379222Y-22568192D01*
X5326421Y-22695667D01*
X5326418Y-22695677D01*
X5299500Y-22831003D01*
X5299500Y-22831006D01*
X5299500Y-22968994D01*
X5299500Y-22968996D01*
X5299499Y-22968996D01*
X5000000Y-22968996D01*
X5000000Y-22952172D01*
X4999999Y-22952155D01*
X4993598Y-22892627D01*
X4993596Y-22892620D01*
X4943354Y-22757913D01*
X4943350Y-22757906D01*
X4857190Y-22642812D01*
X4857187Y-22642809D01*
X4742093Y-22556649D01*
X4742086Y-22556645D01*
X4607379Y-22506403D01*
X4607372Y-22506401D01*
X4547844Y-22500000D01*
X3750000Y-22500000D01*
X3750000Y-23566988D01*
X3692993Y-23534075D01*
X3565826Y-23500000D01*
X3434174Y-23500000D01*
X3307007Y-23534075D01*
X3250000Y-23566988D01*
X3250000Y-22500000D01*
X2452155Y-22500000D01*
X2392627Y-22506401D01*
X2392620Y-22506403D01*
X2257913Y-22556645D01*
X2257906Y-22556649D01*
X2142812Y-22642809D01*
X2142809Y-22642812D01*
X2056649Y-22757906D01*
X2056645Y-22757913D01*
X2006403Y-22892620D01*
X2006401Y-22892627D01*
X2000000Y-22952155D01*
X0Y-22952155D01*
X0Y-11818995D01*
X4799499Y-11818995D01*
X4826418Y-11954322D01*
X4826421Y-11954332D01*
X4879221Y-12081804D01*
X4879228Y-12081817D01*
X4955885Y-12196541D01*
X4955888Y-12196545D01*
X5053454Y-12294111D01*
X5053458Y-12294114D01*
X5168182Y-12370771D01*
X5168195Y-12370778D01*
X5295667Y-12423578D01*
X5295672Y-12423580D01*
X5295676Y-12423580D01*
X5295677Y-12423581D01*
X5431004Y-12450500D01*
X5431007Y-12450500D01*
X12068996Y-12450500D01*
X12160040Y-12432389D01*
X12204328Y-12423580D01*
X12268069Y-12397177D01*
X12331807Y-12370777D01*
X12331808Y-12370776D01*
X12331811Y-12370775D01*
X12446543Y-12294114D01*
X14044113Y-10696543D01*
X14120774Y-10581812D01*
X14173580Y-10454329D01*
X14200499Y-10318994D01*
X14200499Y-10181006D01*
X14173580Y-10045672D01*
X14120774Y-9918189D01*
X14120772Y-9918186D01*
X14120770Y-9918182D01*
X14044113Y-9803456D01*
X13946543Y-9705886D01*
X13831817Y-9629229D01*
X13831807Y-9629224D01*
X13704328Y-9576420D01*
X13704320Y-9576418D01*
X13568998Y-9549501D01*
X13568994Y-9549501D01*
X13431006Y-9549501D01*
X13363338Y-9562960D01*
X13295669Y-9576420D01*
X13168189Y-9629225D01*
X13168185Y-9629227D01*
X13053461Y-9705883D01*
X13053453Y-9705889D01*
X11746162Y-11013181D01*
X11684839Y-11046666D01*
X11658481Y-11049500D01*
X5431005Y-11049500D01*
X5295677Y-11076418D01*
X5295667Y-11076421D01*
X5168195Y-11129221D01*
X5168182Y-11129228D01*
X5053458Y-11205885D01*
X5053454Y-11205888D01*
X4955888Y-11303454D01*
X4955885Y-11303458D01*
X4879228Y-11418182D01*
X4879221Y-11418195D01*
X4826421Y-11545667D01*
X4826418Y-11545677D01*
X4799500Y-11681004D01*
X4799500Y-11681007D01*
X4799500Y-11818993D01*
X4799500Y-11818995D01*
X4799499Y-11818995D01*
X0Y-11818995D01*
X0Y-952155D01*
X500000Y-952155D01*
X500000Y-1750000D01*
X1566988Y-1750000D01*
X1534075Y-1807007D01*
X1500000Y-1934174D01*
X1500000Y-2065826D01*
X1534075Y-2192993D01*
X1566988Y-2250000D01*
X500000Y-2250000D01*
X500000Y-3047844D01*
X506401Y-3107372D01*
X506403Y-3107379D01*
X556645Y-3242086D01*
X556649Y-3242093D01*
X642809Y-3357187D01*
X642812Y-3357190D01*
X757906Y-3443350D01*
X757913Y-3443354D01*
X892620Y-3493596D01*
X892627Y-3493598D01*
X952155Y-3499999D01*
X952172Y-3500000D01*
X1750000Y-3500000D01*
X1750000Y-2433012D01*
X1807007Y-2465925D01*
X1934174Y-2500000D01*
X2065826Y-2500000D01*
X2192993Y-2465925D01*
X2250000Y-2433012D01*
X2250000Y-3500000D01*
X3047828Y-3500000D01*
X3047844Y-3499999D01*
X3107372Y-3493598D01*
X3107379Y-3493596D01*
X3242086Y-3443354D01*
X3242093Y-3443350D01*
X3357187Y-3357190D01*
X3357190Y-3357187D01*
X3443350Y-3242093D01*
X3443354Y-3242086D01*
X3493596Y-3107379D01*
X3493598Y-3107372D01*
X3499999Y-3047844D01*
X3500000Y-3047827D01*
X3500000Y-2250000D01*
X2433012Y-2250000D01*
X2465925Y-2192993D01*
X2500000Y-2065826D01*
X2500000Y-1934174D01*
X2465925Y-1807007D01*
X2433012Y-1750000D01*
X3500000Y-1750000D01*
X3500000Y-980247D01*
X8299500Y-980247D01*
X8299500Y-3019752D01*
X8311131Y-3078229D01*
X8311132Y-3078230D01*
X8355447Y-3144552D01*
X8421769Y-3188867D01*
X8421770Y-3188868D01*
X8480247Y-3200499D01*
X8480250Y-3200500D01*
X8480252Y-3200500D01*
X10519750Y-3200500D01*
X10519751Y-3200499D01*
X10534568Y-3197552D01*
X10578229Y-3188868D01*
X10578229Y-3188867D01*
X10578231Y-3188867D01*
X10644552Y-3144552D01*
X10688867Y-3078231D01*
X10688867Y-3078229D01*
X10688868Y-3078229D01*
X10700499Y-3019752D01*
X10700500Y-3019750D01*
X10700500Y-980249D01*
X10700499Y-980247D01*
X10688868Y-921770D01*
X10688867Y-921769D01*
X10644552Y-855447D01*
X10578230Y-811132D01*
X10578229Y-811131D01*
X10519752Y-799500D01*
X10519748Y-799500D01*
X8480252Y-799500D01*
X8480247Y-799500D01*
X8421770Y-811131D01*
X8421769Y-811132D01*
X8355447Y-855447D01*
X8311132Y-921769D01*
X8311131Y-921770D01*
X8299500Y-980247D01*
X3500000Y-980247D01*
X3500000Y-952172D01*
X3499999Y-952155D01*
X3493598Y-892627D01*
X3493596Y-892620D01*
X3443354Y-757913D01*
X3443350Y-757906D01*
X3357190Y-642812D01*
X3357187Y-642809D01*
X3242093Y-556649D01*
X3242086Y-556645D01*
X3107379Y-506403D01*
X3107372Y-506401D01*
X3047844Y-500000D01*
X2250000Y-500000D01*
X2250000Y-1566988D01*
X2192993Y-1534075D01*
X2065826Y-1500000D01*
X1934174Y-1500000D01*
X1807007Y-1534075D01*
X1750000Y-1566988D01*
X1750000Y-500000D01*
X952155Y-500000D01*
X892627Y-506401D01*
X892620Y-506403D01*
X757913Y-556645D01*
X757906Y-556649D01*
X642812Y-642809D01*
X642809Y-642812D01*
X556649Y-757906D01*
X556645Y-757913D01*
X506403Y-892620D01*
X506401Y-892627D01*
X500000Y-952155D01*
X0Y-952155D01*
X0Y-212210D01*
X2381Y-188029D01*
X10412Y-147651D01*
X28927Y-102956D01*
X44877Y-79086D01*
X79086Y-44877D01*
X102956Y-28927D01*
X147653Y-10412D01*
X188027Y-2381D01*
X212211Y0D01*
X15786984Y0D01*
X15811232Y-2394D01*
G37*
%TD.AperFunction*%
%TD*%
M02*
