%TF.GenerationSoftware,KiCad,Pcbnew,8.0.6*%
%TF.CreationDate,2024-11-13T15:18:57+00:00*%
%TF.ProjectId,AliceMini,416c6963-654d-4696-9e69-2e6b69636164,rev?*%
%TF.SameCoordinates,Original*%
%TF.FileFunction,Copper,L2,Bot*%
%TF.FilePolarity,Positive*%
%FSLAX46Y46*%
G04 Gerber Fmt 4.6, Leading zero omitted, Abs format (unit mm)*
G04 Created by KiCad (PCBNEW 8.0.6) date 2024-11-13 15:18:57*
%MOMM*%
%LPD*%
G01*
G04 APERTURE LIST*
%TA.AperFunction,ComponentPad*%
%ADD10R,2.000000X2.000000*%
%TD*%
%TA.AperFunction,ViaPad*%
%ADD11C,0.800000*%
%TD*%
%TA.AperFunction,Conductor*%
%ADD12C,1.000000*%
%TD*%
G04 APERTURE END LIST*
D10*
%TO.P,H6,1,1*%
%TO.N,Net-(H6-Pad1)*%
X121000000Y-131000000D03*
%TD*%
%TO.P,H7,1,1*%
%TO.N,Net-(H7-Pad1)*%
X115000000Y-131000000D03*
%TD*%
%TO.P,H5,1,1*%
%TO.N,GND*%
X110000000Y-103000000D03*
%TD*%
%TO.P,H8,1,1*%
%TO.N,GND*%
X109500000Y-131000000D03*
%TD*%
%TO.P,H4,1,1*%
%TO.N,Net-(IC1-+IN_A)*%
X116000000Y-103000000D03*
%TD*%
D11*
%TO.N,GND*%
X113750000Y-106000000D03*
X103700000Y-123200000D03*
X103837500Y-107337500D03*
X102725000Y-119525000D03*
%TO.N,Net-(IC1-V+)*%
X119500000Y-111500000D03*
X109500000Y-115500000D03*
%TD*%
D12*
%TO.N,Net-(IC1-V+)*%
X109500000Y-115500000D02*
X113500000Y-111500000D01*
X113500000Y-111500000D02*
X119500000Y-111500000D01*
%TD*%
%TA.AperFunction,Conductor*%
%TO.N,GND*%
G36*
X121800952Y-100001061D02*
G01*
X121906116Y-100014906D01*
X121937383Y-100023284D01*
X122027808Y-100060739D01*
X122055842Y-100076924D01*
X122140003Y-100141503D01*
X122152198Y-100152198D01*
X123847801Y-101847801D01*
X123858496Y-101859996D01*
X123923075Y-101944157D01*
X123939260Y-101972191D01*
X123976715Y-102062616D01*
X123985093Y-102093882D01*
X123998939Y-102199046D01*
X124000000Y-102215232D01*
X124000000Y-131784767D01*
X123998939Y-131800953D01*
X123985093Y-131906117D01*
X123976715Y-131937383D01*
X123939260Y-132027808D01*
X123923075Y-132055842D01*
X123858496Y-132140003D01*
X123847801Y-132152198D01*
X122152198Y-133847801D01*
X122140003Y-133858496D01*
X122055842Y-133923075D01*
X122027808Y-133939260D01*
X121937383Y-133976715D01*
X121906117Y-133985093D01*
X121812291Y-133997446D01*
X121800951Y-133998939D01*
X121784767Y-134000000D01*
X102215233Y-134000000D01*
X102199048Y-133998939D01*
X102186024Y-133997224D01*
X102093882Y-133985093D01*
X102062616Y-133976715D01*
X101972191Y-133939260D01*
X101944157Y-133923075D01*
X101859996Y-133858496D01*
X101847801Y-133847801D01*
X100152198Y-132152198D01*
X100141503Y-132140003D01*
X100076924Y-132055842D01*
X100060739Y-132027808D01*
X100023284Y-131937383D01*
X100014906Y-131906116D01*
X100001061Y-131800952D01*
X100000000Y-131784767D01*
X100000000Y-129952155D01*
X108000000Y-129952155D01*
X108000000Y-130750000D01*
X109066988Y-130750000D01*
X109034075Y-130807007D01*
X109000000Y-130934174D01*
X109000000Y-131065826D01*
X109034075Y-131192993D01*
X109066988Y-131250000D01*
X108000000Y-131250000D01*
X108000000Y-132047844D01*
X108006401Y-132107372D01*
X108006403Y-132107379D01*
X108056645Y-132242086D01*
X108056649Y-132242093D01*
X108142809Y-132357187D01*
X108142812Y-132357190D01*
X108257906Y-132443350D01*
X108257913Y-132443354D01*
X108392620Y-132493596D01*
X108392627Y-132493598D01*
X108452155Y-132499999D01*
X108452172Y-132500000D01*
X109250000Y-132500000D01*
X109250000Y-131433012D01*
X109307007Y-131465925D01*
X109434174Y-131500000D01*
X109565826Y-131500000D01*
X109692993Y-131465925D01*
X109750000Y-131433012D01*
X109750000Y-132500000D01*
X110547828Y-132500000D01*
X110547844Y-132499999D01*
X110607372Y-132493598D01*
X110607379Y-132493596D01*
X110742086Y-132443354D01*
X110742093Y-132443350D01*
X110857187Y-132357190D01*
X110857190Y-132357187D01*
X110943350Y-132242093D01*
X110943354Y-132242086D01*
X110993596Y-132107379D01*
X110993598Y-132107372D01*
X110999999Y-132047844D01*
X111000000Y-132047827D01*
X111000000Y-131250000D01*
X109933012Y-131250000D01*
X109965925Y-131192993D01*
X110000000Y-131065826D01*
X110000000Y-130934174D01*
X109965925Y-130807007D01*
X109933012Y-130750000D01*
X111000000Y-130750000D01*
X111000000Y-129952172D01*
X110999999Y-129952155D01*
X110999997Y-129952135D01*
X113499500Y-129952135D01*
X113499500Y-132047870D01*
X113499501Y-132047876D01*
X113505908Y-132107483D01*
X113556202Y-132242328D01*
X113556206Y-132242335D01*
X113642452Y-132357544D01*
X113642455Y-132357547D01*
X113757664Y-132443793D01*
X113757671Y-132443797D01*
X113892517Y-132494091D01*
X113892516Y-132494091D01*
X113899444Y-132494835D01*
X113952127Y-132500500D01*
X116047872Y-132500499D01*
X116107483Y-132494091D01*
X116242331Y-132443796D01*
X116357546Y-132357546D01*
X116443796Y-132242331D01*
X116494091Y-132107483D01*
X116500500Y-132047873D01*
X116500499Y-129952135D01*
X119499500Y-129952135D01*
X119499500Y-132047870D01*
X119499501Y-132047876D01*
X119505908Y-132107483D01*
X119556202Y-132242328D01*
X119556206Y-132242335D01*
X119642452Y-132357544D01*
X119642455Y-132357547D01*
X119757664Y-132443793D01*
X119757671Y-132443797D01*
X119892517Y-132494091D01*
X119892516Y-132494091D01*
X119899444Y-132494835D01*
X119952127Y-132500500D01*
X122047872Y-132500499D01*
X122107483Y-132494091D01*
X122242331Y-132443796D01*
X122357546Y-132357546D01*
X122443796Y-132242331D01*
X122494091Y-132107483D01*
X122500500Y-132047873D01*
X122500499Y-129952128D01*
X122494091Y-129892517D01*
X122443884Y-129757906D01*
X122443797Y-129757671D01*
X122443793Y-129757664D01*
X122357547Y-129642455D01*
X122357544Y-129642452D01*
X122242335Y-129556206D01*
X122242328Y-129556202D01*
X122107482Y-129505908D01*
X122107483Y-129505908D01*
X122047883Y-129499501D01*
X122047881Y-129499500D01*
X122047873Y-129499500D01*
X122047864Y-129499500D01*
X119952129Y-129499500D01*
X119952123Y-129499501D01*
X119892516Y-129505908D01*
X119757671Y-129556202D01*
X119757664Y-129556206D01*
X119642455Y-129642452D01*
X119642452Y-129642455D01*
X119556206Y-129757664D01*
X119556202Y-129757671D01*
X119505908Y-129892517D01*
X119499501Y-129952116D01*
X119499501Y-129952123D01*
X119499500Y-129952135D01*
X116500499Y-129952135D01*
X116500499Y-129952128D01*
X116494091Y-129892517D01*
X116443884Y-129757906D01*
X116443797Y-129757671D01*
X116443793Y-129757664D01*
X116357547Y-129642455D01*
X116357544Y-129642452D01*
X116242335Y-129556206D01*
X116242328Y-129556202D01*
X116107482Y-129505908D01*
X116107483Y-129505908D01*
X116047883Y-129499501D01*
X116047881Y-129499500D01*
X116047873Y-129499500D01*
X116047864Y-129499500D01*
X113952129Y-129499500D01*
X113952123Y-129499501D01*
X113892516Y-129505908D01*
X113757671Y-129556202D01*
X113757664Y-129556206D01*
X113642455Y-129642452D01*
X113642452Y-129642455D01*
X113556206Y-129757664D01*
X113556202Y-129757671D01*
X113505908Y-129892517D01*
X113499501Y-129952116D01*
X113499501Y-129952123D01*
X113499500Y-129952135D01*
X110999997Y-129952135D01*
X110993598Y-129892627D01*
X110993596Y-129892620D01*
X110943354Y-129757913D01*
X110943350Y-129757906D01*
X110857190Y-129642812D01*
X110857187Y-129642809D01*
X110742093Y-129556649D01*
X110742086Y-129556645D01*
X110607379Y-129506403D01*
X110607372Y-129506401D01*
X110547844Y-129500000D01*
X109750000Y-129500000D01*
X109750000Y-130566988D01*
X109692993Y-130534075D01*
X109565826Y-130500000D01*
X109434174Y-130500000D01*
X109307007Y-130534075D01*
X109250000Y-130566988D01*
X109250000Y-129500000D01*
X108452155Y-129500000D01*
X108392627Y-129506401D01*
X108392620Y-129506403D01*
X108257913Y-129556645D01*
X108257906Y-129556649D01*
X108142812Y-129642809D01*
X108142809Y-129642812D01*
X108056649Y-129757906D01*
X108056645Y-129757913D01*
X108006403Y-129892620D01*
X108006401Y-129892627D01*
X108000000Y-129952155D01*
X100000000Y-129952155D01*
X100000000Y-115401455D01*
X108499500Y-115401455D01*
X108499500Y-115598544D01*
X108537947Y-115791828D01*
X108537949Y-115791836D01*
X108613367Y-115973910D01*
X108613372Y-115973920D01*
X108722860Y-116137780D01*
X108722863Y-116137784D01*
X108862215Y-116277136D01*
X108862219Y-116277139D01*
X109026079Y-116386627D01*
X109026083Y-116386629D01*
X109026086Y-116386631D01*
X109208164Y-116462051D01*
X109401455Y-116500499D01*
X109401458Y-116500500D01*
X109401460Y-116500500D01*
X109598542Y-116500500D01*
X109598543Y-116500499D01*
X109791836Y-116462051D01*
X109973914Y-116386631D01*
X110137781Y-116277139D01*
X113878102Y-112536819D01*
X113939425Y-112503334D01*
X113965783Y-112500500D01*
X119598543Y-112500500D01*
X119728582Y-112474632D01*
X119791835Y-112462051D01*
X119973914Y-112386632D01*
X120137782Y-112277139D01*
X120277139Y-112137782D01*
X120386632Y-111973914D01*
X120462051Y-111791835D01*
X120500500Y-111598541D01*
X120500500Y-111401459D01*
X120500500Y-111401456D01*
X120462052Y-111208170D01*
X120462051Y-111208169D01*
X120462051Y-111208165D01*
X120462049Y-111208160D01*
X120386635Y-111026092D01*
X120386628Y-111026079D01*
X120277139Y-110862218D01*
X120277136Y-110862214D01*
X120137785Y-110722863D01*
X120137781Y-110722860D01*
X119973920Y-110613371D01*
X119973907Y-110613364D01*
X119791839Y-110537950D01*
X119791829Y-110537947D01*
X119598543Y-110499500D01*
X119598541Y-110499500D01*
X113401459Y-110499500D01*
X113401455Y-110499500D01*
X113304812Y-110518724D01*
X113208167Y-110537947D01*
X113208161Y-110537949D01*
X113154834Y-110560037D01*
X113154834Y-110560038D01*
X113109315Y-110578892D01*
X113026089Y-110613366D01*
X113026079Y-110613371D01*
X112872714Y-110715846D01*
X112872715Y-110715847D01*
X112862216Y-110722862D01*
X112862211Y-110722866D01*
X108722863Y-114862215D01*
X108722860Y-114862219D01*
X108613372Y-115026079D01*
X108613367Y-115026089D01*
X108537949Y-115208163D01*
X108537947Y-115208171D01*
X108499500Y-115401455D01*
X100000000Y-115401455D01*
X100000000Y-102215232D01*
X100001061Y-102199047D01*
X100014906Y-102093883D01*
X100023284Y-102062616D01*
X100060739Y-101972191D01*
X100072306Y-101952155D01*
X108500000Y-101952155D01*
X108500000Y-102750000D01*
X109566988Y-102750000D01*
X109534075Y-102807007D01*
X109500000Y-102934174D01*
X109500000Y-103065826D01*
X109534075Y-103192993D01*
X109566988Y-103250000D01*
X108500000Y-103250000D01*
X108500000Y-104047844D01*
X108506401Y-104107372D01*
X108506403Y-104107379D01*
X108556645Y-104242086D01*
X108556649Y-104242093D01*
X108642809Y-104357187D01*
X108642812Y-104357190D01*
X108757906Y-104443350D01*
X108757913Y-104443354D01*
X108892620Y-104493596D01*
X108892627Y-104493598D01*
X108952155Y-104499999D01*
X108952172Y-104500000D01*
X109750000Y-104500000D01*
X109750000Y-103433012D01*
X109807007Y-103465925D01*
X109934174Y-103500000D01*
X110065826Y-103500000D01*
X110192993Y-103465925D01*
X110250000Y-103433012D01*
X110250000Y-104500000D01*
X111047828Y-104500000D01*
X111047844Y-104499999D01*
X111107372Y-104493598D01*
X111107379Y-104493596D01*
X111242086Y-104443354D01*
X111242093Y-104443350D01*
X111357187Y-104357190D01*
X111357190Y-104357187D01*
X111443350Y-104242093D01*
X111443354Y-104242086D01*
X111493596Y-104107379D01*
X111493598Y-104107372D01*
X111499999Y-104047844D01*
X111500000Y-104047827D01*
X111500000Y-103250000D01*
X110433012Y-103250000D01*
X110465925Y-103192993D01*
X110500000Y-103065826D01*
X110500000Y-102934174D01*
X110465925Y-102807007D01*
X110433012Y-102750000D01*
X111500000Y-102750000D01*
X111500000Y-101952172D01*
X111499999Y-101952155D01*
X111499997Y-101952135D01*
X114499500Y-101952135D01*
X114499500Y-104047870D01*
X114499501Y-104047876D01*
X114505908Y-104107483D01*
X114556202Y-104242328D01*
X114556206Y-104242335D01*
X114642452Y-104357544D01*
X114642455Y-104357547D01*
X114757664Y-104443793D01*
X114757671Y-104443797D01*
X114892517Y-104494091D01*
X114892516Y-104494091D01*
X114899444Y-104494835D01*
X114952127Y-104500500D01*
X117047872Y-104500499D01*
X117107483Y-104494091D01*
X117242331Y-104443796D01*
X117357546Y-104357546D01*
X117443796Y-104242331D01*
X117494091Y-104107483D01*
X117500500Y-104047873D01*
X117500499Y-101952128D01*
X117494091Y-101892517D01*
X117481961Y-101859996D01*
X117443797Y-101757671D01*
X117443793Y-101757664D01*
X117357547Y-101642455D01*
X117357544Y-101642452D01*
X117242335Y-101556206D01*
X117242328Y-101556202D01*
X117107482Y-101505908D01*
X117107483Y-101505908D01*
X117047883Y-101499501D01*
X117047881Y-101499500D01*
X117047873Y-101499500D01*
X117047864Y-101499500D01*
X114952129Y-101499500D01*
X114952123Y-101499501D01*
X114892516Y-101505908D01*
X114757671Y-101556202D01*
X114757664Y-101556206D01*
X114642455Y-101642452D01*
X114642452Y-101642455D01*
X114556206Y-101757664D01*
X114556202Y-101757671D01*
X114505908Y-101892517D01*
X114500357Y-101944157D01*
X114499501Y-101952123D01*
X114499500Y-101952135D01*
X111499997Y-101952135D01*
X111493598Y-101892627D01*
X111493596Y-101892620D01*
X111443354Y-101757913D01*
X111443350Y-101757906D01*
X111357190Y-101642812D01*
X111357187Y-101642809D01*
X111242093Y-101556649D01*
X111242086Y-101556645D01*
X111107379Y-101506403D01*
X111107372Y-101506401D01*
X111047844Y-101500000D01*
X110250000Y-101500000D01*
X110250000Y-102566988D01*
X110192993Y-102534075D01*
X110065826Y-102500000D01*
X109934174Y-102500000D01*
X109807007Y-102534075D01*
X109750000Y-102566988D01*
X109750000Y-101500000D01*
X108952155Y-101500000D01*
X108892627Y-101506401D01*
X108892620Y-101506403D01*
X108757913Y-101556645D01*
X108757906Y-101556649D01*
X108642812Y-101642809D01*
X108642809Y-101642812D01*
X108556649Y-101757906D01*
X108556645Y-101757913D01*
X108506403Y-101892620D01*
X108506401Y-101892627D01*
X108500000Y-101952155D01*
X100072306Y-101952155D01*
X100076924Y-101944157D01*
X100141503Y-101859996D01*
X100152190Y-101847809D01*
X101847809Y-100152190D01*
X101859996Y-100141503D01*
X101944157Y-100076924D01*
X101972191Y-100060739D01*
X102062616Y-100023284D01*
X102093882Y-100014906D01*
X102199048Y-100001061D01*
X102215233Y-100000000D01*
X121784767Y-100000000D01*
X121800952Y-100001061D01*
G37*
%TD.AperFunction*%
%TD*%
M02*
