%TF.GenerationSoftware,KiCad,Pcbnew,8.0.6*%
%TF.CreationDate,2024-11-13T15:18:57+00:00*%
%TF.ProjectId,AliceMini,416c6963-654d-4696-9e69-2e6b69636164,rev?*%
%TF.SameCoordinates,Original*%
%TF.FileFunction,Soldermask,Top*%
%TF.FilePolarity,Negative*%
%FSLAX46Y46*%
G04 Gerber Fmt 4.6, Leading zero omitted, Abs format (unit mm)*
G04 Created by KiCad (PCBNEW 8.0.6) date 2024-11-13 15:18:57*
%MOMM*%
%LPD*%
G01*
G04 APERTURE LIST*
G04 Aperture macros list*
%AMRoundRect*
0 Rectangle with rounded corners*
0 $1 Rounding radius*
0 $2 $3 $4 $5 $6 $7 $8 $9 X,Y pos of 4 corners*
0 Add a 4 corners polygon primitive as box body*
4,1,4,$2,$3,$4,$5,$6,$7,$8,$9,$2,$3,0*
0 Add four circle primitives for the rounded corners*
1,1,$1+$1,$2,$3*
1,1,$1+$1,$4,$5*
1,1,$1+$1,$6,$7*
1,1,$1+$1,$8,$9*
0 Add four rect primitives between the rounded corners*
20,1,$1+$1,$2,$3,$4,$5,0*
20,1,$1+$1,$4,$5,$6,$7,0*
20,1,$1+$1,$6,$7,$8,$9,0*
20,1,$1+$1,$8,$9,$2,$3,0*%
G04 Aperture macros list end*
%ADD10RoundRect,0.250000X-0.450000X0.262500X-0.450000X-0.262500X0.450000X-0.262500X0.450000X0.262500X0*%
%ADD11RoundRect,0.250000X0.650000X2.450000X-0.650000X2.450000X-0.650000X-2.450000X0.650000X-2.450000X0*%
%ADD12R,0.650000X1.528000*%
%ADD13R,2.000000X2.000000*%
%ADD14RoundRect,0.250000X0.312500X0.625000X-0.312500X0.625000X-0.312500X-0.625000X0.312500X-0.625000X0*%
%ADD15C,2.200000*%
%ADD16RoundRect,0.250000X0.450000X-0.262500X0.450000X0.262500X-0.450000X0.262500X-0.450000X-0.262500X0*%
%ADD17RoundRect,0.250000X-2.450000X0.650000X-2.450000X-0.650000X2.450000X-0.650000X2.450000X0.650000X0*%
%ADD18RoundRect,0.250000X0.262500X0.450000X-0.262500X0.450000X-0.262500X-0.450000X0.262500X-0.450000X0*%
%ADD19RoundRect,0.225000X0.225000X0.375000X-0.225000X0.375000X-0.225000X-0.375000X0.225000X-0.375000X0*%
%ADD20RoundRect,0.250000X-0.262500X-0.450000X0.262500X-0.450000X0.262500X0.450000X-0.262500X0.450000X0*%
G04 APERTURE END LIST*
D10*
%TO.C,R6*%
X109500000Y-118337500D03*
X109500000Y-120162500D03*
%TD*%
%TO.C,R9*%
X121000000Y-126587500D03*
X121000000Y-128412500D03*
%TD*%
D11*
%TO.C,C5*%
X107000000Y-125000000D03*
X101900000Y-125000000D03*
%TD*%
D12*
%TO.C,IC1*%
X118540000Y-106000000D03*
X117270000Y-106000000D03*
X116000000Y-106000000D03*
X114730000Y-106000000D03*
X114730000Y-111422000D03*
X116000000Y-111422000D03*
X117270000Y-111422000D03*
X118540000Y-111422000D03*
%TD*%
D13*
%TO.C,H6*%
X121000000Y-131000000D03*
%TD*%
D14*
%TO.C,R1*%
X112000000Y-106250000D03*
X109075000Y-106250000D03*
%TD*%
D10*
%TO.C,R10*%
X116000000Y-126587500D03*
X116000000Y-128412500D03*
%TD*%
D15*
%TO.C,H1*%
X103000000Y-103000000D03*
%TD*%
D13*
%TO.C,H7*%
X115000000Y-131000000D03*
%TD*%
D16*
%TO.C,R4*%
X109500000Y-113825000D03*
X109500000Y-112000000D03*
%TD*%
D15*
%TO.C,H3*%
X103000000Y-131000000D03*
%TD*%
D13*
%TO.C,H5*%
X110000000Y-103000000D03*
%TD*%
D17*
%TO.C,C4*%
X114000000Y-116000000D03*
X114000000Y-121100000D03*
%TD*%
D13*
%TO.C,H8*%
X109500000Y-131000000D03*
%TD*%
D11*
%TO.C,C2*%
X107000000Y-116000000D03*
X101900000Y-116000000D03*
%TD*%
D18*
%TO.C,R8*%
X113912500Y-126500000D03*
X112087500Y-126500000D03*
%TD*%
D15*
%TO.C,H2*%
X121000000Y-103000000D03*
%TD*%
D18*
%TO.C,R5*%
X107000000Y-106000000D03*
X105175000Y-106000000D03*
%TD*%
D17*
%TO.C,C3*%
X121000000Y-113500000D03*
X121000000Y-118600000D03*
%TD*%
D16*
%TO.C,R2*%
X121000000Y-108825000D03*
X121000000Y-107000000D03*
%TD*%
D19*
%TO.C,D1*%
X107000000Y-120500000D03*
X103700000Y-120500000D03*
%TD*%
D13*
%TO.C,H4*%
X116000000Y-103000000D03*
%TD*%
D20*
%TO.C,R3*%
X115250000Y-113500000D03*
X117075000Y-113500000D03*
%TD*%
D16*
%TO.C,R7*%
X112500000Y-130325000D03*
X112500000Y-128500000D03*
%TD*%
D11*
%TO.C,C1*%
X107000000Y-110000000D03*
X101900000Y-110000000D03*
%TD*%
M02*
