%TF.GenerationSoftware,KiCad,Pcbnew,8.0.6*%
%TF.CreationDate,2024-11-13T15:18:57+00:00*%
%TF.ProjectId,AliceMini,416c6963-654d-4696-9e69-2e6b69636164,rev?*%
%TF.SameCoordinates,Original*%
%TF.FileFunction,Legend,Top*%
%TF.FilePolarity,Positive*%
%FSLAX46Y46*%
G04 Gerber Fmt 4.6, Leading zero omitted, Abs format (unit mm)*
G04 Created by KiCad (PCBNEW 8.0.6) date 2024-11-13 15:18:57*
%MOMM*%
%LPD*%
G01*
G04 APERTURE LIST*
G04 Aperture macros list*
%AMRoundRect*
0 Rectangle with rounded corners*
0 $1 Rounding radius*
0 $2 $3 $4 $5 $6 $7 $8 $9 X,Y pos of 4 corners*
0 Add a 4 corners polygon primitive as box body*
4,1,4,$2,$3,$4,$5,$6,$7,$8,$9,$2,$3,0*
0 Add four circle primitives for the rounded corners*
1,1,$1+$1,$2,$3*
1,1,$1+$1,$4,$5*
1,1,$1+$1,$6,$7*
1,1,$1+$1,$8,$9*
0 Add four rect primitives between the rounded corners*
20,1,$1+$1,$2,$3,$4,$5,0*
20,1,$1+$1,$4,$5,$6,$7,0*
20,1,$1+$1,$6,$7,$8,$9,0*
20,1,$1+$1,$8,$9,$2,$3,0*%
G04 Aperture macros list end*
%ADD10C,0.250000*%
%ADD11C,0.150000*%
%ADD12C,0.254000*%
%ADD13C,0.120000*%
%ADD14C,0.200000*%
%ADD15RoundRect,0.250000X-0.450000X0.262500X-0.450000X-0.262500X0.450000X-0.262500X0.450000X0.262500X0*%
%ADD16RoundRect,0.250000X0.650000X2.450000X-0.650000X2.450000X-0.650000X-2.450000X0.650000X-2.450000X0*%
%ADD17R,0.650000X1.528000*%
%ADD18R,2.000000X2.000000*%
%ADD19RoundRect,0.250000X0.312500X0.625000X-0.312500X0.625000X-0.312500X-0.625000X0.312500X-0.625000X0*%
%ADD20C,2.200000*%
%ADD21RoundRect,0.250000X0.450000X-0.262500X0.450000X0.262500X-0.450000X0.262500X-0.450000X-0.262500X0*%
%ADD22RoundRect,0.250000X-2.450000X0.650000X-2.450000X-0.650000X2.450000X-0.650000X2.450000X0.650000X0*%
%ADD23RoundRect,0.250000X0.262500X0.450000X-0.262500X0.450000X-0.262500X-0.450000X0.262500X-0.450000X0*%
%ADD24RoundRect,0.225000X0.225000X0.375000X-0.225000X0.375000X-0.225000X-0.375000X0.225000X-0.375000X0*%
%ADD25RoundRect,0.250000X-0.262500X-0.450000X0.262500X-0.450000X0.262500X0.450000X-0.262500X0.450000X0*%
G04 APERTURE END LIST*
D10*
X119190288Y-122113549D02*
X119809335Y-122113549D01*
X119066478Y-122484977D02*
X119499811Y-121184977D01*
X119499811Y-121184977D02*
X119933145Y-122484977D01*
X120552193Y-122484977D02*
X120428383Y-122423073D01*
X120428383Y-122423073D02*
X120366478Y-122299263D01*
X120366478Y-122299263D02*
X120366478Y-121184977D01*
X121047430Y-122484977D02*
X121047430Y-121618311D01*
X121047430Y-121184977D02*
X120985526Y-121246882D01*
X120985526Y-121246882D02*
X121047430Y-121308787D01*
X121047430Y-121308787D02*
X121109335Y-121246882D01*
X121109335Y-121246882D02*
X121047430Y-121184977D01*
X121047430Y-121184977D02*
X121047430Y-121308787D01*
X122223621Y-122423073D02*
X122099812Y-122484977D01*
X122099812Y-122484977D02*
X121852193Y-122484977D01*
X121852193Y-122484977D02*
X121728383Y-122423073D01*
X121728383Y-122423073D02*
X121666478Y-122361168D01*
X121666478Y-122361168D02*
X121604574Y-122237358D01*
X121604574Y-122237358D02*
X121604574Y-121865930D01*
X121604574Y-121865930D02*
X121666478Y-121742120D01*
X121666478Y-121742120D02*
X121728383Y-121680215D01*
X121728383Y-121680215D02*
X121852193Y-121618311D01*
X121852193Y-121618311D02*
X122099812Y-121618311D01*
X122099812Y-121618311D02*
X122223621Y-121680215D01*
X123276002Y-122423073D02*
X123152193Y-122484977D01*
X123152193Y-122484977D02*
X122904574Y-122484977D01*
X122904574Y-122484977D02*
X122780764Y-122423073D01*
X122780764Y-122423073D02*
X122718860Y-122299263D01*
X122718860Y-122299263D02*
X122718860Y-121804025D01*
X122718860Y-121804025D02*
X122780764Y-121680215D01*
X122780764Y-121680215D02*
X122904574Y-121618311D01*
X122904574Y-121618311D02*
X123152193Y-121618311D01*
X123152193Y-121618311D02*
X123276002Y-121680215D01*
X123276002Y-121680215D02*
X123337907Y-121804025D01*
X123337907Y-121804025D02*
X123337907Y-121927834D01*
X123337907Y-121927834D02*
X122718860Y-122051644D01*
X114795050Y-124577904D02*
X114795050Y-123277904D01*
X114795050Y-123277904D02*
X115228384Y-124206476D01*
X115228384Y-124206476D02*
X115661717Y-123277904D01*
X115661717Y-123277904D02*
X115661717Y-124577904D01*
X116280764Y-124577904D02*
X116280764Y-123711238D01*
X116280764Y-123277904D02*
X116218860Y-123339809D01*
X116218860Y-123339809D02*
X116280764Y-123401714D01*
X116280764Y-123401714D02*
X116342669Y-123339809D01*
X116342669Y-123339809D02*
X116280764Y-123277904D01*
X116280764Y-123277904D02*
X116280764Y-123401714D01*
X116899812Y-123711238D02*
X116899812Y-124577904D01*
X116899812Y-123835047D02*
X116961717Y-123773142D01*
X116961717Y-123773142D02*
X117085527Y-123711238D01*
X117085527Y-123711238D02*
X117271241Y-123711238D01*
X117271241Y-123711238D02*
X117395050Y-123773142D01*
X117395050Y-123773142D02*
X117456955Y-123896952D01*
X117456955Y-123896952D02*
X117456955Y-124577904D01*
X118076002Y-124577904D02*
X118076002Y-123711238D01*
X118076002Y-123277904D02*
X118014098Y-123339809D01*
X118014098Y-123339809D02*
X118076002Y-123401714D01*
X118076002Y-123401714D02*
X118137907Y-123339809D01*
X118137907Y-123339809D02*
X118076002Y-123277904D01*
X118076002Y-123277904D02*
X118076002Y-123401714D01*
X119499812Y-123277904D02*
X119933145Y-124577904D01*
X119933145Y-124577904D02*
X120366479Y-123277904D01*
X121480765Y-124577904D02*
X120737908Y-124577904D01*
X121109336Y-124577904D02*
X121109336Y-123277904D01*
X121109336Y-123277904D02*
X120985527Y-123463619D01*
X120985527Y-123463619D02*
X120861717Y-123587428D01*
X120861717Y-123587428D02*
X120737908Y-123649333D01*
X122037907Y-124454095D02*
X122099812Y-124516000D01*
X122099812Y-124516000D02*
X122037907Y-124577904D01*
X122037907Y-124577904D02*
X121976003Y-124516000D01*
X121976003Y-124516000D02*
X122037907Y-124454095D01*
X122037907Y-124454095D02*
X122037907Y-124577904D01*
X123337908Y-124577904D02*
X122595051Y-124577904D01*
X122966479Y-124577904D02*
X122966479Y-123277904D01*
X122966479Y-123277904D02*
X122842670Y-123463619D01*
X122842670Y-123463619D02*
X122718860Y-123587428D01*
X122718860Y-123587428D02*
X122595051Y-123649333D01*
D11*
X109954819Y-122079166D02*
X109478628Y-122412499D01*
X109954819Y-122650594D02*
X108954819Y-122650594D01*
X108954819Y-122650594D02*
X108954819Y-122269642D01*
X108954819Y-122269642D02*
X109002438Y-122174404D01*
X109002438Y-122174404D02*
X109050057Y-122126785D01*
X109050057Y-122126785D02*
X109145295Y-122079166D01*
X109145295Y-122079166D02*
X109288152Y-122079166D01*
X109288152Y-122079166D02*
X109383390Y-122126785D01*
X109383390Y-122126785D02*
X109431009Y-122174404D01*
X109431009Y-122174404D02*
X109478628Y-122269642D01*
X109478628Y-122269642D02*
X109478628Y-122650594D01*
X108954819Y-121222023D02*
X108954819Y-121412499D01*
X108954819Y-121412499D02*
X109002438Y-121507737D01*
X109002438Y-121507737D02*
X109050057Y-121555356D01*
X109050057Y-121555356D02*
X109192914Y-121650594D01*
X109192914Y-121650594D02*
X109383390Y-121698213D01*
X109383390Y-121698213D02*
X109764342Y-121698213D01*
X109764342Y-121698213D02*
X109859580Y-121650594D01*
X109859580Y-121650594D02*
X109907200Y-121602975D01*
X109907200Y-121602975D02*
X109954819Y-121507737D01*
X109954819Y-121507737D02*
X109954819Y-121317261D01*
X109954819Y-121317261D02*
X109907200Y-121222023D01*
X109907200Y-121222023D02*
X109859580Y-121174404D01*
X109859580Y-121174404D02*
X109764342Y-121126785D01*
X109764342Y-121126785D02*
X109526247Y-121126785D01*
X109526247Y-121126785D02*
X109431009Y-121174404D01*
X109431009Y-121174404D02*
X109383390Y-121222023D01*
X109383390Y-121222023D02*
X109335771Y-121317261D01*
X109335771Y-121317261D02*
X109335771Y-121507737D01*
X109335771Y-121507737D02*
X109383390Y-121602975D01*
X109383390Y-121602975D02*
X109431009Y-121650594D01*
X109431009Y-121650594D02*
X109526247Y-121698213D01*
X123104819Y-127666666D02*
X122628628Y-127999999D01*
X123104819Y-128238094D02*
X122104819Y-128238094D01*
X122104819Y-128238094D02*
X122104819Y-127857142D01*
X122104819Y-127857142D02*
X122152438Y-127761904D01*
X122152438Y-127761904D02*
X122200057Y-127714285D01*
X122200057Y-127714285D02*
X122295295Y-127666666D01*
X122295295Y-127666666D02*
X122438152Y-127666666D01*
X122438152Y-127666666D02*
X122533390Y-127714285D01*
X122533390Y-127714285D02*
X122581009Y-127761904D01*
X122581009Y-127761904D02*
X122628628Y-127857142D01*
X122628628Y-127857142D02*
X122628628Y-128238094D01*
X123104819Y-127190475D02*
X123104819Y-126999999D01*
X123104819Y-126999999D02*
X123057200Y-126904761D01*
X123057200Y-126904761D02*
X123009580Y-126857142D01*
X123009580Y-126857142D02*
X122866723Y-126761904D01*
X122866723Y-126761904D02*
X122676247Y-126714285D01*
X122676247Y-126714285D02*
X122295295Y-126714285D01*
X122295295Y-126714285D02*
X122200057Y-126761904D01*
X122200057Y-126761904D02*
X122152438Y-126809523D01*
X122152438Y-126809523D02*
X122104819Y-126904761D01*
X122104819Y-126904761D02*
X122104819Y-127095237D01*
X122104819Y-127095237D02*
X122152438Y-127190475D01*
X122152438Y-127190475D02*
X122200057Y-127238094D01*
X122200057Y-127238094D02*
X122295295Y-127285713D01*
X122295295Y-127285713D02*
X122533390Y-127285713D01*
X122533390Y-127285713D02*
X122628628Y-127238094D01*
X122628628Y-127238094D02*
X122676247Y-127190475D01*
X122676247Y-127190475D02*
X122723866Y-127095237D01*
X122723866Y-127095237D02*
X122723866Y-126904761D01*
X122723866Y-126904761D02*
X122676247Y-126809523D01*
X122676247Y-126809523D02*
X122628628Y-126761904D01*
X122628628Y-126761904D02*
X122533390Y-126714285D01*
X104283333Y-125359580D02*
X104235714Y-125407200D01*
X104235714Y-125407200D02*
X104092857Y-125454819D01*
X104092857Y-125454819D02*
X103997619Y-125454819D01*
X103997619Y-125454819D02*
X103854762Y-125407200D01*
X103854762Y-125407200D02*
X103759524Y-125311961D01*
X103759524Y-125311961D02*
X103711905Y-125216723D01*
X103711905Y-125216723D02*
X103664286Y-125026247D01*
X103664286Y-125026247D02*
X103664286Y-124883390D01*
X103664286Y-124883390D02*
X103711905Y-124692914D01*
X103711905Y-124692914D02*
X103759524Y-124597676D01*
X103759524Y-124597676D02*
X103854762Y-124502438D01*
X103854762Y-124502438D02*
X103997619Y-124454819D01*
X103997619Y-124454819D02*
X104092857Y-124454819D01*
X104092857Y-124454819D02*
X104235714Y-124502438D01*
X104235714Y-124502438D02*
X104283333Y-124550057D01*
X105188095Y-124454819D02*
X104711905Y-124454819D01*
X104711905Y-124454819D02*
X104664286Y-124931009D01*
X104664286Y-124931009D02*
X104711905Y-124883390D01*
X104711905Y-124883390D02*
X104807143Y-124835771D01*
X104807143Y-124835771D02*
X105045238Y-124835771D01*
X105045238Y-124835771D02*
X105140476Y-124883390D01*
X105140476Y-124883390D02*
X105188095Y-124931009D01*
X105188095Y-124931009D02*
X105235714Y-125026247D01*
X105235714Y-125026247D02*
X105235714Y-125264342D01*
X105235714Y-125264342D02*
X105188095Y-125359580D01*
X105188095Y-125359580D02*
X105140476Y-125407200D01*
X105140476Y-125407200D02*
X105045238Y-125454819D01*
X105045238Y-125454819D02*
X104807143Y-125454819D01*
X104807143Y-125454819D02*
X104711905Y-125407200D01*
X104711905Y-125407200D02*
X104664286Y-125359580D01*
D12*
X117209318Y-109950762D02*
X115939318Y-109950762D01*
X117088365Y-108620285D02*
X117148842Y-108680761D01*
X117148842Y-108680761D02*
X117209318Y-108862190D01*
X117209318Y-108862190D02*
X117209318Y-108983142D01*
X117209318Y-108983142D02*
X117148842Y-109164571D01*
X117148842Y-109164571D02*
X117027889Y-109285523D01*
X117027889Y-109285523D02*
X116906937Y-109346000D01*
X116906937Y-109346000D02*
X116665032Y-109406476D01*
X116665032Y-109406476D02*
X116483603Y-109406476D01*
X116483603Y-109406476D02*
X116241699Y-109346000D01*
X116241699Y-109346000D02*
X116120746Y-109285523D01*
X116120746Y-109285523D02*
X115999794Y-109164571D01*
X115999794Y-109164571D02*
X115939318Y-108983142D01*
X115939318Y-108983142D02*
X115939318Y-108862190D01*
X115939318Y-108862190D02*
X115999794Y-108680761D01*
X115999794Y-108680761D02*
X116060270Y-108620285D01*
X117209318Y-107410761D02*
X117209318Y-108136476D01*
X117209318Y-107773619D02*
X115939318Y-107773619D01*
X115939318Y-107773619D02*
X116120746Y-107894571D01*
X116120746Y-107894571D02*
X116241699Y-108015523D01*
X116241699Y-108015523D02*
X116302175Y-108136476D01*
D11*
X118535714Y-132504819D02*
X119202380Y-133504819D01*
X119202380Y-132504819D02*
X118535714Y-133504819D01*
X120059523Y-133504819D02*
X119583333Y-133504819D01*
X119583333Y-133504819D02*
X119583333Y-132504819D01*
X120964285Y-133504819D02*
X120630952Y-133028628D01*
X120392857Y-133504819D02*
X120392857Y-132504819D01*
X120392857Y-132504819D02*
X120773809Y-132504819D01*
X120773809Y-132504819D02*
X120869047Y-132552438D01*
X120869047Y-132552438D02*
X120916666Y-132600057D01*
X120916666Y-132600057D02*
X120964285Y-132695295D01*
X120964285Y-132695295D02*
X120964285Y-132838152D01*
X120964285Y-132838152D02*
X120916666Y-132933390D01*
X120916666Y-132933390D02*
X120869047Y-132981009D01*
X120869047Y-132981009D02*
X120773809Y-133028628D01*
X120773809Y-133028628D02*
X120392857Y-133028628D01*
X121345238Y-132600057D02*
X121392857Y-132552438D01*
X121392857Y-132552438D02*
X121488095Y-132504819D01*
X121488095Y-132504819D02*
X121726190Y-132504819D01*
X121726190Y-132504819D02*
X121821428Y-132552438D01*
X121821428Y-132552438D02*
X121869047Y-132600057D01*
X121869047Y-132600057D02*
X121916666Y-132695295D01*
X121916666Y-132695295D02*
X121916666Y-132790533D01*
X121916666Y-132790533D02*
X121869047Y-132933390D01*
X121869047Y-132933390D02*
X121297619Y-133504819D01*
X121297619Y-133504819D02*
X121916666Y-133504819D01*
X110370833Y-108524819D02*
X110037500Y-108048628D01*
X109799405Y-108524819D02*
X109799405Y-107524819D01*
X109799405Y-107524819D02*
X110180357Y-107524819D01*
X110180357Y-107524819D02*
X110275595Y-107572438D01*
X110275595Y-107572438D02*
X110323214Y-107620057D01*
X110323214Y-107620057D02*
X110370833Y-107715295D01*
X110370833Y-107715295D02*
X110370833Y-107858152D01*
X110370833Y-107858152D02*
X110323214Y-107953390D01*
X110323214Y-107953390D02*
X110275595Y-108001009D01*
X110275595Y-108001009D02*
X110180357Y-108048628D01*
X110180357Y-108048628D02*
X109799405Y-108048628D01*
X111323214Y-108524819D02*
X110751786Y-108524819D01*
X111037500Y-108524819D02*
X111037500Y-107524819D01*
X111037500Y-107524819D02*
X110942262Y-107667676D01*
X110942262Y-107667676D02*
X110847024Y-107762914D01*
X110847024Y-107762914D02*
X110751786Y-107810533D01*
X118104819Y-128142857D02*
X117628628Y-128476190D01*
X118104819Y-128714285D02*
X117104819Y-128714285D01*
X117104819Y-128714285D02*
X117104819Y-128333333D01*
X117104819Y-128333333D02*
X117152438Y-128238095D01*
X117152438Y-128238095D02*
X117200057Y-128190476D01*
X117200057Y-128190476D02*
X117295295Y-128142857D01*
X117295295Y-128142857D02*
X117438152Y-128142857D01*
X117438152Y-128142857D02*
X117533390Y-128190476D01*
X117533390Y-128190476D02*
X117581009Y-128238095D01*
X117581009Y-128238095D02*
X117628628Y-128333333D01*
X117628628Y-128333333D02*
X117628628Y-128714285D01*
X118104819Y-127190476D02*
X118104819Y-127761904D01*
X118104819Y-127476190D02*
X117104819Y-127476190D01*
X117104819Y-127476190D02*
X117247676Y-127571428D01*
X117247676Y-127571428D02*
X117342914Y-127666666D01*
X117342914Y-127666666D02*
X117390533Y-127761904D01*
X117104819Y-126571428D02*
X117104819Y-126476190D01*
X117104819Y-126476190D02*
X117152438Y-126380952D01*
X117152438Y-126380952D02*
X117200057Y-126333333D01*
X117200057Y-126333333D02*
X117295295Y-126285714D01*
X117295295Y-126285714D02*
X117485771Y-126238095D01*
X117485771Y-126238095D02*
X117723866Y-126238095D01*
X117723866Y-126238095D02*
X117914342Y-126285714D01*
X117914342Y-126285714D02*
X118009580Y-126333333D01*
X118009580Y-126333333D02*
X118057200Y-126380952D01*
X118057200Y-126380952D02*
X118104819Y-126476190D01*
X118104819Y-126476190D02*
X118104819Y-126571428D01*
X118104819Y-126571428D02*
X118057200Y-126666666D01*
X118057200Y-126666666D02*
X118009580Y-126714285D01*
X118009580Y-126714285D02*
X117914342Y-126761904D01*
X117914342Y-126761904D02*
X117723866Y-126809523D01*
X117723866Y-126809523D02*
X117485771Y-126809523D01*
X117485771Y-126809523D02*
X117295295Y-126761904D01*
X117295295Y-126761904D02*
X117200057Y-126714285D01*
X117200057Y-126714285D02*
X117152438Y-126666666D01*
X117152438Y-126666666D02*
X117104819Y-126571428D01*
X113285714Y-132454819D02*
X113952380Y-133454819D01*
X113952380Y-132454819D02*
X113285714Y-133454819D01*
X114809523Y-133454819D02*
X114333333Y-133454819D01*
X114333333Y-133454819D02*
X114333333Y-132454819D01*
X115714285Y-133454819D02*
X115380952Y-132978628D01*
X115142857Y-133454819D02*
X115142857Y-132454819D01*
X115142857Y-132454819D02*
X115523809Y-132454819D01*
X115523809Y-132454819D02*
X115619047Y-132502438D01*
X115619047Y-132502438D02*
X115666666Y-132550057D01*
X115666666Y-132550057D02*
X115714285Y-132645295D01*
X115714285Y-132645295D02*
X115714285Y-132788152D01*
X115714285Y-132788152D02*
X115666666Y-132883390D01*
X115666666Y-132883390D02*
X115619047Y-132931009D01*
X115619047Y-132931009D02*
X115523809Y-132978628D01*
X115523809Y-132978628D02*
X115142857Y-132978628D01*
X116047619Y-132454819D02*
X116666666Y-132454819D01*
X116666666Y-132454819D02*
X116333333Y-132835771D01*
X116333333Y-132835771D02*
X116476190Y-132835771D01*
X116476190Y-132835771D02*
X116571428Y-132883390D01*
X116571428Y-132883390D02*
X116619047Y-132931009D01*
X116619047Y-132931009D02*
X116666666Y-133026247D01*
X116666666Y-133026247D02*
X116666666Y-133264342D01*
X116666666Y-133264342D02*
X116619047Y-133359580D01*
X116619047Y-133359580D02*
X116571428Y-133407200D01*
X116571428Y-133407200D02*
X116476190Y-133454819D01*
X116476190Y-133454819D02*
X116190476Y-133454819D01*
X116190476Y-133454819D02*
X116095238Y-133407200D01*
X116095238Y-133407200D02*
X116047619Y-133359580D01*
X109954819Y-110416666D02*
X109478628Y-110749999D01*
X109954819Y-110988094D02*
X108954819Y-110988094D01*
X108954819Y-110988094D02*
X108954819Y-110607142D01*
X108954819Y-110607142D02*
X109002438Y-110511904D01*
X109002438Y-110511904D02*
X109050057Y-110464285D01*
X109050057Y-110464285D02*
X109145295Y-110416666D01*
X109145295Y-110416666D02*
X109288152Y-110416666D01*
X109288152Y-110416666D02*
X109383390Y-110464285D01*
X109383390Y-110464285D02*
X109431009Y-110511904D01*
X109431009Y-110511904D02*
X109478628Y-110607142D01*
X109478628Y-110607142D02*
X109478628Y-110988094D01*
X109288152Y-109559523D02*
X109954819Y-109559523D01*
X108907200Y-109797618D02*
X109621485Y-110035713D01*
X109621485Y-110035713D02*
X109621485Y-109416666D01*
X108380953Y-101204819D02*
X108380953Y-100204819D01*
X108380953Y-100204819D02*
X108714286Y-100919104D01*
X108714286Y-100919104D02*
X109047619Y-100204819D01*
X109047619Y-100204819D02*
X109047619Y-101204819D01*
X109523810Y-101204819D02*
X109523810Y-100538152D01*
X109523810Y-100204819D02*
X109476191Y-100252438D01*
X109476191Y-100252438D02*
X109523810Y-100300057D01*
X109523810Y-100300057D02*
X109571429Y-100252438D01*
X109571429Y-100252438D02*
X109523810Y-100204819D01*
X109523810Y-100204819D02*
X109523810Y-100300057D01*
X110428571Y-101157200D02*
X110333333Y-101204819D01*
X110333333Y-101204819D02*
X110142857Y-101204819D01*
X110142857Y-101204819D02*
X110047619Y-101157200D01*
X110047619Y-101157200D02*
X110000000Y-101109580D01*
X110000000Y-101109580D02*
X109952381Y-101014342D01*
X109952381Y-101014342D02*
X109952381Y-100728628D01*
X109952381Y-100728628D02*
X110000000Y-100633390D01*
X110000000Y-100633390D02*
X110047619Y-100585771D01*
X110047619Y-100585771D02*
X110142857Y-100538152D01*
X110142857Y-100538152D02*
X110333333Y-100538152D01*
X110333333Y-100538152D02*
X110428571Y-100585771D01*
X110857143Y-100823866D02*
X111619048Y-100823866D01*
X114359580Y-118666666D02*
X114407200Y-118714285D01*
X114407200Y-118714285D02*
X114454819Y-118857142D01*
X114454819Y-118857142D02*
X114454819Y-118952380D01*
X114454819Y-118952380D02*
X114407200Y-119095237D01*
X114407200Y-119095237D02*
X114311961Y-119190475D01*
X114311961Y-119190475D02*
X114216723Y-119238094D01*
X114216723Y-119238094D02*
X114026247Y-119285713D01*
X114026247Y-119285713D02*
X113883390Y-119285713D01*
X113883390Y-119285713D02*
X113692914Y-119238094D01*
X113692914Y-119238094D02*
X113597676Y-119190475D01*
X113597676Y-119190475D02*
X113502438Y-119095237D01*
X113502438Y-119095237D02*
X113454819Y-118952380D01*
X113454819Y-118952380D02*
X113454819Y-118857142D01*
X113454819Y-118857142D02*
X113502438Y-118714285D01*
X113502438Y-118714285D02*
X113550057Y-118666666D01*
X113788152Y-117809523D02*
X114454819Y-117809523D01*
X113407200Y-118047618D02*
X114121485Y-118285713D01*
X114121485Y-118285713D02*
X114121485Y-117666666D01*
X108285714Y-132504819D02*
X108952380Y-133504819D01*
X108952380Y-132504819D02*
X108285714Y-133504819D01*
X109809523Y-133504819D02*
X109333333Y-133504819D01*
X109333333Y-133504819D02*
X109333333Y-132504819D01*
X110714285Y-133504819D02*
X110380952Y-133028628D01*
X110142857Y-133504819D02*
X110142857Y-132504819D01*
X110142857Y-132504819D02*
X110523809Y-132504819D01*
X110523809Y-132504819D02*
X110619047Y-132552438D01*
X110619047Y-132552438D02*
X110666666Y-132600057D01*
X110666666Y-132600057D02*
X110714285Y-132695295D01*
X110714285Y-132695295D02*
X110714285Y-132838152D01*
X110714285Y-132838152D02*
X110666666Y-132933390D01*
X110666666Y-132933390D02*
X110619047Y-132981009D01*
X110619047Y-132981009D02*
X110523809Y-133028628D01*
X110523809Y-133028628D02*
X110142857Y-133028628D01*
X111666666Y-133504819D02*
X111095238Y-133504819D01*
X111380952Y-133504819D02*
X111380952Y-132504819D01*
X111380952Y-132504819D02*
X111285714Y-132647676D01*
X111285714Y-132647676D02*
X111190476Y-132742914D01*
X111190476Y-132742914D02*
X111095238Y-132790533D01*
X104333333Y-116359580D02*
X104285714Y-116407200D01*
X104285714Y-116407200D02*
X104142857Y-116454819D01*
X104142857Y-116454819D02*
X104047619Y-116454819D01*
X104047619Y-116454819D02*
X103904762Y-116407200D01*
X103904762Y-116407200D02*
X103809524Y-116311961D01*
X103809524Y-116311961D02*
X103761905Y-116216723D01*
X103761905Y-116216723D02*
X103714286Y-116026247D01*
X103714286Y-116026247D02*
X103714286Y-115883390D01*
X103714286Y-115883390D02*
X103761905Y-115692914D01*
X103761905Y-115692914D02*
X103809524Y-115597676D01*
X103809524Y-115597676D02*
X103904762Y-115502438D01*
X103904762Y-115502438D02*
X104047619Y-115454819D01*
X104047619Y-115454819D02*
X104142857Y-115454819D01*
X104142857Y-115454819D02*
X104285714Y-115502438D01*
X104285714Y-115502438D02*
X104333333Y-115550057D01*
X104714286Y-115550057D02*
X104761905Y-115502438D01*
X104761905Y-115502438D02*
X104857143Y-115454819D01*
X104857143Y-115454819D02*
X105095238Y-115454819D01*
X105095238Y-115454819D02*
X105190476Y-115502438D01*
X105190476Y-115502438D02*
X105238095Y-115550057D01*
X105238095Y-115550057D02*
X105285714Y-115645295D01*
X105285714Y-115645295D02*
X105285714Y-115740533D01*
X105285714Y-115740533D02*
X105238095Y-115883390D01*
X105238095Y-115883390D02*
X104666667Y-116454819D01*
X104666667Y-116454819D02*
X105285714Y-116454819D01*
X112833333Y-125204819D02*
X112500000Y-124728628D01*
X112261905Y-125204819D02*
X112261905Y-124204819D01*
X112261905Y-124204819D02*
X112642857Y-124204819D01*
X112642857Y-124204819D02*
X112738095Y-124252438D01*
X112738095Y-124252438D02*
X112785714Y-124300057D01*
X112785714Y-124300057D02*
X112833333Y-124395295D01*
X112833333Y-124395295D02*
X112833333Y-124538152D01*
X112833333Y-124538152D02*
X112785714Y-124633390D01*
X112785714Y-124633390D02*
X112738095Y-124681009D01*
X112738095Y-124681009D02*
X112642857Y-124728628D01*
X112642857Y-124728628D02*
X112261905Y-124728628D01*
X113404762Y-124633390D02*
X113309524Y-124585771D01*
X113309524Y-124585771D02*
X113261905Y-124538152D01*
X113261905Y-124538152D02*
X113214286Y-124442914D01*
X113214286Y-124442914D02*
X113214286Y-124395295D01*
X113214286Y-124395295D02*
X113261905Y-124300057D01*
X113261905Y-124300057D02*
X113309524Y-124252438D01*
X113309524Y-124252438D02*
X113404762Y-124204819D01*
X113404762Y-124204819D02*
X113595238Y-124204819D01*
X113595238Y-124204819D02*
X113690476Y-124252438D01*
X113690476Y-124252438D02*
X113738095Y-124300057D01*
X113738095Y-124300057D02*
X113785714Y-124395295D01*
X113785714Y-124395295D02*
X113785714Y-124442914D01*
X113785714Y-124442914D02*
X113738095Y-124538152D01*
X113738095Y-124538152D02*
X113690476Y-124585771D01*
X113690476Y-124585771D02*
X113595238Y-124633390D01*
X113595238Y-124633390D02*
X113404762Y-124633390D01*
X113404762Y-124633390D02*
X113309524Y-124681009D01*
X113309524Y-124681009D02*
X113261905Y-124728628D01*
X113261905Y-124728628D02*
X113214286Y-124823866D01*
X113214286Y-124823866D02*
X113214286Y-125014342D01*
X113214286Y-125014342D02*
X113261905Y-125109580D01*
X113261905Y-125109580D02*
X113309524Y-125157200D01*
X113309524Y-125157200D02*
X113404762Y-125204819D01*
X113404762Y-125204819D02*
X113595238Y-125204819D01*
X113595238Y-125204819D02*
X113690476Y-125157200D01*
X113690476Y-125157200D02*
X113738095Y-125109580D01*
X113738095Y-125109580D02*
X113785714Y-125014342D01*
X113785714Y-125014342D02*
X113785714Y-124823866D01*
X113785714Y-124823866D02*
X113738095Y-124728628D01*
X113738095Y-124728628D02*
X113690476Y-124681009D01*
X113690476Y-124681009D02*
X113595238Y-124633390D01*
X106333333Y-104704819D02*
X106000000Y-104228628D01*
X105761905Y-104704819D02*
X105761905Y-103704819D01*
X105761905Y-103704819D02*
X106142857Y-103704819D01*
X106142857Y-103704819D02*
X106238095Y-103752438D01*
X106238095Y-103752438D02*
X106285714Y-103800057D01*
X106285714Y-103800057D02*
X106333333Y-103895295D01*
X106333333Y-103895295D02*
X106333333Y-104038152D01*
X106333333Y-104038152D02*
X106285714Y-104133390D01*
X106285714Y-104133390D02*
X106238095Y-104181009D01*
X106238095Y-104181009D02*
X106142857Y-104228628D01*
X106142857Y-104228628D02*
X105761905Y-104228628D01*
X107238095Y-103704819D02*
X106761905Y-103704819D01*
X106761905Y-103704819D02*
X106714286Y-104181009D01*
X106714286Y-104181009D02*
X106761905Y-104133390D01*
X106761905Y-104133390D02*
X106857143Y-104085771D01*
X106857143Y-104085771D02*
X107095238Y-104085771D01*
X107095238Y-104085771D02*
X107190476Y-104133390D01*
X107190476Y-104133390D02*
X107238095Y-104181009D01*
X107238095Y-104181009D02*
X107285714Y-104276247D01*
X107285714Y-104276247D02*
X107285714Y-104514342D01*
X107285714Y-104514342D02*
X107238095Y-104609580D01*
X107238095Y-104609580D02*
X107190476Y-104657200D01*
X107190476Y-104657200D02*
X107095238Y-104704819D01*
X107095238Y-104704819D02*
X106857143Y-104704819D01*
X106857143Y-104704819D02*
X106761905Y-104657200D01*
X106761905Y-104657200D02*
X106714286Y-104609580D01*
X121359580Y-116166666D02*
X121407200Y-116214285D01*
X121407200Y-116214285D02*
X121454819Y-116357142D01*
X121454819Y-116357142D02*
X121454819Y-116452380D01*
X121454819Y-116452380D02*
X121407200Y-116595237D01*
X121407200Y-116595237D02*
X121311961Y-116690475D01*
X121311961Y-116690475D02*
X121216723Y-116738094D01*
X121216723Y-116738094D02*
X121026247Y-116785713D01*
X121026247Y-116785713D02*
X120883390Y-116785713D01*
X120883390Y-116785713D02*
X120692914Y-116738094D01*
X120692914Y-116738094D02*
X120597676Y-116690475D01*
X120597676Y-116690475D02*
X120502438Y-116595237D01*
X120502438Y-116595237D02*
X120454819Y-116452380D01*
X120454819Y-116452380D02*
X120454819Y-116357142D01*
X120454819Y-116357142D02*
X120502438Y-116214285D01*
X120502438Y-116214285D02*
X120550057Y-116166666D01*
X120454819Y-115833332D02*
X120454819Y-115214285D01*
X120454819Y-115214285D02*
X120835771Y-115547618D01*
X120835771Y-115547618D02*
X120835771Y-115404761D01*
X120835771Y-115404761D02*
X120883390Y-115309523D01*
X120883390Y-115309523D02*
X120931009Y-115261904D01*
X120931009Y-115261904D02*
X121026247Y-115214285D01*
X121026247Y-115214285D02*
X121264342Y-115214285D01*
X121264342Y-115214285D02*
X121359580Y-115261904D01*
X121359580Y-115261904D02*
X121407200Y-115309523D01*
X121407200Y-115309523D02*
X121454819Y-115404761D01*
X121454819Y-115404761D02*
X121454819Y-115690475D01*
X121454819Y-115690475D02*
X121407200Y-115785713D01*
X121407200Y-115785713D02*
X121359580Y-115833332D01*
X121454819Y-110916666D02*
X120978628Y-111249999D01*
X121454819Y-111488094D02*
X120454819Y-111488094D01*
X120454819Y-111488094D02*
X120454819Y-111107142D01*
X120454819Y-111107142D02*
X120502438Y-111011904D01*
X120502438Y-111011904D02*
X120550057Y-110964285D01*
X120550057Y-110964285D02*
X120645295Y-110916666D01*
X120645295Y-110916666D02*
X120788152Y-110916666D01*
X120788152Y-110916666D02*
X120883390Y-110964285D01*
X120883390Y-110964285D02*
X120931009Y-111011904D01*
X120931009Y-111011904D02*
X120978628Y-111107142D01*
X120978628Y-111107142D02*
X120978628Y-111488094D01*
X120550057Y-110535713D02*
X120502438Y-110488094D01*
X120502438Y-110488094D02*
X120454819Y-110392856D01*
X120454819Y-110392856D02*
X120454819Y-110154761D01*
X120454819Y-110154761D02*
X120502438Y-110059523D01*
X120502438Y-110059523D02*
X120550057Y-110011904D01*
X120550057Y-110011904D02*
X120645295Y-109964285D01*
X120645295Y-109964285D02*
X120740533Y-109964285D01*
X120740533Y-109964285D02*
X120883390Y-110011904D01*
X120883390Y-110011904D02*
X121454819Y-110583332D01*
X121454819Y-110583332D02*
X121454819Y-109964285D01*
X101011905Y-120954819D02*
X101011905Y-119954819D01*
X101011905Y-119954819D02*
X101250000Y-119954819D01*
X101250000Y-119954819D02*
X101392857Y-120002438D01*
X101392857Y-120002438D02*
X101488095Y-120097676D01*
X101488095Y-120097676D02*
X101535714Y-120192914D01*
X101535714Y-120192914D02*
X101583333Y-120383390D01*
X101583333Y-120383390D02*
X101583333Y-120526247D01*
X101583333Y-120526247D02*
X101535714Y-120716723D01*
X101535714Y-120716723D02*
X101488095Y-120811961D01*
X101488095Y-120811961D02*
X101392857Y-120907200D01*
X101392857Y-120907200D02*
X101250000Y-120954819D01*
X101250000Y-120954819D02*
X101011905Y-120954819D01*
X102535714Y-120954819D02*
X101964286Y-120954819D01*
X102250000Y-120954819D02*
X102250000Y-119954819D01*
X102250000Y-119954819D02*
X102154762Y-120097676D01*
X102154762Y-120097676D02*
X102059524Y-120192914D01*
X102059524Y-120192914D02*
X101964286Y-120240533D01*
X114380953Y-101204819D02*
X114380953Y-100204819D01*
X114380953Y-100204819D02*
X114714286Y-100919104D01*
X114714286Y-100919104D02*
X115047619Y-100204819D01*
X115047619Y-100204819D02*
X115047619Y-101204819D01*
X115523810Y-101204819D02*
X115523810Y-100538152D01*
X115523810Y-100204819D02*
X115476191Y-100252438D01*
X115476191Y-100252438D02*
X115523810Y-100300057D01*
X115523810Y-100300057D02*
X115571429Y-100252438D01*
X115571429Y-100252438D02*
X115523810Y-100204819D01*
X115523810Y-100204819D02*
X115523810Y-100300057D01*
X116428571Y-101157200D02*
X116333333Y-101204819D01*
X116333333Y-101204819D02*
X116142857Y-101204819D01*
X116142857Y-101204819D02*
X116047619Y-101157200D01*
X116047619Y-101157200D02*
X116000000Y-101109580D01*
X116000000Y-101109580D02*
X115952381Y-101014342D01*
X115952381Y-101014342D02*
X115952381Y-100728628D01*
X115952381Y-100728628D02*
X116000000Y-100633390D01*
X116000000Y-100633390D02*
X116047619Y-100585771D01*
X116047619Y-100585771D02*
X116142857Y-100538152D01*
X116142857Y-100538152D02*
X116333333Y-100538152D01*
X116333333Y-100538152D02*
X116428571Y-100585771D01*
X116857143Y-100823866D02*
X117619048Y-100823866D01*
X117238095Y-101204819D02*
X117238095Y-100442914D01*
X113083333Y-113954819D02*
X112750000Y-113478628D01*
X112511905Y-113954819D02*
X112511905Y-112954819D01*
X112511905Y-112954819D02*
X112892857Y-112954819D01*
X112892857Y-112954819D02*
X112988095Y-113002438D01*
X112988095Y-113002438D02*
X113035714Y-113050057D01*
X113035714Y-113050057D02*
X113083333Y-113145295D01*
X113083333Y-113145295D02*
X113083333Y-113288152D01*
X113083333Y-113288152D02*
X113035714Y-113383390D01*
X113035714Y-113383390D02*
X112988095Y-113431009D01*
X112988095Y-113431009D02*
X112892857Y-113478628D01*
X112892857Y-113478628D02*
X112511905Y-113478628D01*
X113416667Y-112954819D02*
X114035714Y-112954819D01*
X114035714Y-112954819D02*
X113702381Y-113335771D01*
X113702381Y-113335771D02*
X113845238Y-113335771D01*
X113845238Y-113335771D02*
X113940476Y-113383390D01*
X113940476Y-113383390D02*
X113988095Y-113431009D01*
X113988095Y-113431009D02*
X114035714Y-113526247D01*
X114035714Y-113526247D02*
X114035714Y-113764342D01*
X114035714Y-113764342D02*
X113988095Y-113859580D01*
X113988095Y-113859580D02*
X113940476Y-113907200D01*
X113940476Y-113907200D02*
X113845238Y-113954819D01*
X113845238Y-113954819D02*
X113559524Y-113954819D01*
X113559524Y-113954819D02*
X113464286Y-113907200D01*
X113464286Y-113907200D02*
X113416667Y-113859580D01*
X111204819Y-128666666D02*
X110728628Y-128999999D01*
X111204819Y-129238094D02*
X110204819Y-129238094D01*
X110204819Y-129238094D02*
X110204819Y-128857142D01*
X110204819Y-128857142D02*
X110252438Y-128761904D01*
X110252438Y-128761904D02*
X110300057Y-128714285D01*
X110300057Y-128714285D02*
X110395295Y-128666666D01*
X110395295Y-128666666D02*
X110538152Y-128666666D01*
X110538152Y-128666666D02*
X110633390Y-128714285D01*
X110633390Y-128714285D02*
X110681009Y-128761904D01*
X110681009Y-128761904D02*
X110728628Y-128857142D01*
X110728628Y-128857142D02*
X110728628Y-129238094D01*
X110204819Y-128333332D02*
X110204819Y-127666666D01*
X110204819Y-127666666D02*
X111204819Y-128095237D01*
X104333333Y-110359580D02*
X104285714Y-110407200D01*
X104285714Y-110407200D02*
X104142857Y-110454819D01*
X104142857Y-110454819D02*
X104047619Y-110454819D01*
X104047619Y-110454819D02*
X103904762Y-110407200D01*
X103904762Y-110407200D02*
X103809524Y-110311961D01*
X103809524Y-110311961D02*
X103761905Y-110216723D01*
X103761905Y-110216723D02*
X103714286Y-110026247D01*
X103714286Y-110026247D02*
X103714286Y-109883390D01*
X103714286Y-109883390D02*
X103761905Y-109692914D01*
X103761905Y-109692914D02*
X103809524Y-109597676D01*
X103809524Y-109597676D02*
X103904762Y-109502438D01*
X103904762Y-109502438D02*
X104047619Y-109454819D01*
X104047619Y-109454819D02*
X104142857Y-109454819D01*
X104142857Y-109454819D02*
X104285714Y-109502438D01*
X104285714Y-109502438D02*
X104333333Y-109550057D01*
X105285714Y-110454819D02*
X104714286Y-110454819D01*
X105000000Y-110454819D02*
X105000000Y-109454819D01*
X105000000Y-109454819D02*
X104904762Y-109597676D01*
X104904762Y-109597676D02*
X104809524Y-109692914D01*
X104809524Y-109692914D02*
X104714286Y-109740533D01*
D13*
%TO.C,R6*%
X108765000Y-119022936D02*
X108765000Y-119477064D01*
X110235000Y-119022936D02*
X110235000Y-119477064D01*
%TO.C,R9*%
X120265000Y-127272936D02*
X120265000Y-127727064D01*
X121735000Y-127272936D02*
X121735000Y-127727064D01*
%TO.C,C5*%
X105865748Y-122390000D02*
X103034252Y-122390000D01*
X105865748Y-127610000D02*
X103034252Y-127610000D01*
D14*
%TO.C,IC1*%
X114183000Y-107113000D02*
X119087000Y-107113000D01*
X114183000Y-110309000D02*
X114183000Y-107113000D01*
X119087000Y-107113000D02*
X119087000Y-110309000D01*
X119087000Y-110309000D02*
X114183000Y-110309000D01*
X119215000Y-105236000D02*
X119215000Y-106763000D01*
D13*
%TO.C,H6*%
X119800000Y-129800000D02*
X122200000Y-129800000D01*
X119800000Y-132200000D02*
X119800000Y-129800000D01*
X122200000Y-129800000D02*
X122200000Y-132200000D01*
X122200000Y-132200000D02*
X119800000Y-132200000D01*
%TO.C,R1*%
X111264564Y-105340000D02*
X109810436Y-105340000D01*
X111264564Y-107160000D02*
X109810436Y-107160000D01*
%TO.C,R10*%
X115265000Y-127272936D02*
X115265000Y-127727064D01*
X116735000Y-127272936D02*
X116735000Y-127727064D01*
%TO.C,H7*%
X113800000Y-129800000D02*
X116200000Y-129800000D01*
X113800000Y-132200000D02*
X113800000Y-129800000D01*
X116200000Y-129800000D02*
X116200000Y-132200000D01*
X116200000Y-132200000D02*
X113800000Y-132200000D01*
%TO.C,R4*%
X108765000Y-113139564D02*
X108765000Y-112685436D01*
X110235000Y-113139564D02*
X110235000Y-112685436D01*
%TO.C,H5*%
X108800000Y-101800000D02*
X111200000Y-101800000D01*
X108800000Y-104200000D02*
X108800000Y-101800000D01*
X111200000Y-101800000D02*
X111200000Y-104200000D01*
X111200000Y-104200000D02*
X108800000Y-104200000D01*
%TO.C,C4*%
X111390000Y-117134252D02*
X111390000Y-119965748D01*
X116610000Y-117134252D02*
X116610000Y-119965748D01*
%TO.C,H8*%
X108300000Y-129800000D02*
X110700000Y-129800000D01*
X108300000Y-132200000D02*
X108300000Y-129800000D01*
X110700000Y-129800000D02*
X110700000Y-132200000D01*
X110700000Y-132200000D02*
X108300000Y-132200000D01*
%TO.C,C2*%
X105865748Y-113390000D02*
X103034252Y-113390000D01*
X105865748Y-118610000D02*
X103034252Y-118610000D01*
%TO.C,R8*%
X113227064Y-125765000D02*
X112772936Y-125765000D01*
X113227064Y-127235000D02*
X112772936Y-127235000D01*
%TO.C,R5*%
X106314564Y-105265000D02*
X105860436Y-105265000D01*
X106314564Y-106735000D02*
X105860436Y-106735000D01*
%TO.C,C3*%
X118390000Y-114634252D02*
X118390000Y-117465748D01*
X123610000Y-114634252D02*
X123610000Y-117465748D01*
%TO.C,R2*%
X120265000Y-108139564D02*
X120265000Y-107685436D01*
X121735000Y-108139564D02*
X121735000Y-107685436D01*
%TO.C,D1*%
X107710000Y-119500000D02*
X103700000Y-119500000D01*
X107710000Y-121500000D02*
X103700000Y-121500000D01*
X107710000Y-121500000D02*
X107710000Y-119500000D01*
%TO.C,H4*%
X114800000Y-101800000D02*
X117200000Y-101800000D01*
X114800000Y-104200000D02*
X114800000Y-101800000D01*
X117200000Y-101800000D02*
X117200000Y-104200000D01*
X117200000Y-104200000D02*
X114800000Y-104200000D01*
%TO.C,R3*%
X115935436Y-112765000D02*
X116389564Y-112765000D01*
X115935436Y-114235000D02*
X116389564Y-114235000D01*
%TO.C,R7*%
X111765000Y-129639564D02*
X111765000Y-129185436D01*
X113235000Y-129639564D02*
X113235000Y-129185436D01*
%TO.C,C1*%
X105865748Y-107390000D02*
X103034252Y-107390000D01*
X105865748Y-112610000D02*
X103034252Y-112610000D01*
%TD*%
%LPC*%
D15*
%TO.C,R6*%
X109500000Y-118337500D03*
X109500000Y-120162500D03*
%TD*%
%TO.C,R9*%
X121000000Y-126587500D03*
X121000000Y-128412500D03*
%TD*%
D16*
%TO.C,C5*%
X107000000Y-125000000D03*
X101900000Y-125000000D03*
%TD*%
D17*
%TO.C,IC1*%
X118540000Y-106000000D03*
X117270000Y-106000000D03*
X116000000Y-106000000D03*
X114730000Y-106000000D03*
X114730000Y-111422000D03*
X116000000Y-111422000D03*
X117270000Y-111422000D03*
X118540000Y-111422000D03*
%TD*%
D18*
%TO.C,H6*%
X121000000Y-131000000D03*
%TD*%
D19*
%TO.C,R1*%
X112000000Y-106250000D03*
X109075000Y-106250000D03*
%TD*%
D15*
%TO.C,R10*%
X116000000Y-126587500D03*
X116000000Y-128412500D03*
%TD*%
D20*
%TO.C,H1*%
X103000000Y-103000000D03*
%TD*%
D18*
%TO.C,H7*%
X115000000Y-131000000D03*
%TD*%
D21*
%TO.C,R4*%
X109500000Y-113825000D03*
X109500000Y-112000000D03*
%TD*%
D20*
%TO.C,H3*%
X103000000Y-131000000D03*
%TD*%
D18*
%TO.C,H5*%
X110000000Y-103000000D03*
%TD*%
D22*
%TO.C,C4*%
X114000000Y-116000000D03*
X114000000Y-121100000D03*
%TD*%
D18*
%TO.C,H8*%
X109500000Y-131000000D03*
%TD*%
D16*
%TO.C,C2*%
X107000000Y-116000000D03*
X101900000Y-116000000D03*
%TD*%
D23*
%TO.C,R8*%
X113912500Y-126500000D03*
X112087500Y-126500000D03*
%TD*%
D20*
%TO.C,H2*%
X121000000Y-103000000D03*
%TD*%
D23*
%TO.C,R5*%
X107000000Y-106000000D03*
X105175000Y-106000000D03*
%TD*%
D22*
%TO.C,C3*%
X121000000Y-113500000D03*
X121000000Y-118600000D03*
%TD*%
D21*
%TO.C,R2*%
X121000000Y-108825000D03*
X121000000Y-107000000D03*
%TD*%
D24*
%TO.C,D1*%
X107000000Y-120500000D03*
X103700000Y-120500000D03*
%TD*%
D18*
%TO.C,H4*%
X116000000Y-103000000D03*
%TD*%
D25*
%TO.C,R3*%
X115250000Y-113500000D03*
X117075000Y-113500000D03*
%TD*%
D21*
%TO.C,R7*%
X112500000Y-130325000D03*
X112500000Y-128500000D03*
%TD*%
D16*
%TO.C,C1*%
X107000000Y-110000000D03*
X101900000Y-110000000D03*
%TD*%
%LPD*%
M02*
